G04*
G04 #@! TF.GenerationSoftware,Altium Limited,Altium Designer,20.0.2 (26)*
G04*
G04 Layer_Color=32768*
%FSLAX44Y44*%
%MOMM*%
G71*
G01*
G75*
%ADD13C,0.2540*%
D13*
X0Y862696D02*
X10157Y852539D01*
X0D02*
X10157Y862696D01*
X0Y857617D02*
X10157D01*
X5078Y852539D02*
Y862696D01*
X15235Y850000D02*
Y852539D01*
X17774D01*
Y850000D01*
X15235D01*
X38088Y862696D02*
X35549Y865235D01*
X30470D01*
X27931Y862696D01*
Y852539D01*
X30470Y850000D01*
X35549D01*
X38088Y852539D01*
Y857617D01*
X33009D01*
X43166Y850000D02*
Y865235D01*
X48244Y860157D01*
X53323Y865235D01*
Y850000D01*
X58401Y862696D02*
X60940Y865235D01*
X66019D01*
X68558Y862696D01*
Y860157D01*
X66019Y857617D01*
X63479D01*
X66019D01*
X68558Y855078D01*
Y852539D01*
X66019Y850000D01*
X60940D01*
X58401Y852539D01*
X88871Y857617D02*
X99028D01*
X119341Y850000D02*
Y865235D01*
X124420Y860157D01*
X129498Y865235D01*
Y850000D01*
X137116Y860157D02*
X142194D01*
X144733Y857617D01*
Y850000D01*
X137116D01*
X134577Y852539D01*
X137116Y855078D01*
X144733D01*
X149811Y850000D02*
Y860157D01*
X157429D01*
X159968Y857617D01*
Y850000D01*
X165047Y860157D02*
Y852539D01*
X167586Y850000D01*
X175203D01*
Y860157D01*
X182821Y850000D02*
Y862696D01*
Y857617D01*
X180282D01*
X185360D01*
X182821D01*
Y862696D01*
X185360Y865235D01*
X195517Y860157D02*
X200595D01*
X203134Y857617D01*
Y850000D01*
X195517D01*
X192978Y852539D01*
X195517Y855078D01*
X203134D01*
X218369Y860157D02*
X210752D01*
X208213Y857617D01*
Y852539D01*
X210752Y850000D01*
X218369D01*
X225987Y862696D02*
Y860157D01*
X223448D01*
X228526D01*
X225987D01*
Y852539D01*
X228526Y850000D01*
X236144Y860157D02*
Y852539D01*
X238683Y850000D01*
X246300D01*
Y860157D01*
X251379D02*
Y850000D01*
Y855078D01*
X253918Y857617D01*
X256457Y860157D01*
X258996D01*
X266614Y850000D02*
X271692D01*
X269153D01*
Y860157D01*
X266614D01*
X279310Y850000D02*
Y860157D01*
X286927D01*
X289466Y857617D01*
Y850000D01*
X299623Y844922D02*
X302162D01*
X304701Y847461D01*
Y860157D01*
X297084D01*
X294545Y857617D01*
Y852539D01*
X297084Y850000D01*
X304701D01*
X325015D02*
Y865235D01*
X335172Y850000D01*
Y865235D01*
X342789Y850000D02*
X347868D01*
X350407Y852539D01*
Y857617D01*
X347868Y860157D01*
X342789D01*
X340250Y857617D01*
Y852539D01*
X342789Y850000D01*
X358024Y862696D02*
Y860157D01*
X355485D01*
X360563D01*
X358024D01*
Y852539D01*
X360563Y850000D01*
X375798D02*
X370720D01*
X368181Y852539D01*
Y857617D01*
X370720Y860157D01*
X375798D01*
X378338Y857617D01*
Y855078D01*
X368181D01*
X383416Y850000D02*
X391034D01*
X393573Y852539D01*
X391034Y855078D01*
X385955D01*
X383416Y857617D01*
X385955Y860157D01*
X393573D01*
X0Y837696D02*
X10157Y827539D01*
X0D02*
X10157Y837696D01*
X0Y832617D02*
X10157D01*
X5078Y827539D02*
Y837696D01*
X15235Y825000D02*
Y827539D01*
X17774D01*
Y825000D01*
X15235D01*
X38088Y837696D02*
X35549Y840235D01*
X30470D01*
X27931Y837696D01*
Y827539D01*
X30470Y825000D01*
X35549D01*
X38088Y827539D01*
Y832617D01*
X33009D01*
X43166Y825000D02*
Y840235D01*
X48244Y835157D01*
X53323Y840235D01*
Y825000D01*
X66019D02*
Y840235D01*
X58401Y832617D01*
X68558D01*
X88871D02*
X99028D01*
X119341Y840235D02*
Y825000D01*
X129498D01*
X134577D02*
X139655D01*
X137116D01*
Y835157D01*
X134577D01*
X157429D02*
X149811D01*
X147272Y832617D01*
Y827539D01*
X149811Y825000D01*
X157429D01*
X170125D02*
X165047D01*
X162507Y827539D01*
Y832617D01*
X165047Y835157D01*
X170125D01*
X172664Y832617D01*
Y830078D01*
X162507D01*
X177743Y825000D02*
Y835157D01*
X185360D01*
X187899Y832617D01*
Y825000D01*
X203134Y835157D02*
X195517D01*
X192978Y832617D01*
Y827539D01*
X195517Y825000D01*
X203134D01*
X215830D02*
X210752D01*
X208213Y827539D01*
Y832617D01*
X210752Y835157D01*
X215830D01*
X218369Y832617D01*
Y830078D01*
X208213D01*
X0Y887696D02*
X10157Y877539D01*
X0D02*
X10157Y887696D01*
X0Y882617D02*
X10157D01*
X5078Y877539D02*
Y887696D01*
X15235Y875000D02*
Y877539D01*
X17774D01*
Y875000D01*
X15235D01*
X38088Y887696D02*
X35549Y890235D01*
X30470D01*
X27931Y887696D01*
Y877539D01*
X30470Y875000D01*
X35549D01*
X38088Y877539D01*
Y882617D01*
X33009D01*
X43166Y875000D02*
Y890235D01*
X48244Y885157D01*
X53323Y890235D01*
Y875000D01*
X68558D02*
X58401D01*
X68558Y885157D01*
Y887696D01*
X66019Y890235D01*
X60940D01*
X58401Y887696D01*
X88871Y882617D02*
X99028D01*
X119341Y875000D02*
Y890235D01*
X124420Y885157D01*
X129498Y890235D01*
Y875000D01*
X142194D02*
X137116D01*
X134577Y877539D01*
Y882617D01*
X137116Y885157D01*
X142194D01*
X144733Y882617D01*
Y880078D01*
X134577D01*
X159968Y885157D02*
X152351D01*
X149811Y882617D01*
Y877539D01*
X152351Y875000D01*
X159968D01*
X165047Y890235D02*
Y875000D01*
Y882617D01*
X167586Y885157D01*
X172664D01*
X175203Y882617D01*
Y875000D01*
X182821Y885157D02*
X187899D01*
X190438Y882617D01*
Y875000D01*
X182821D01*
X180282Y877539D01*
X182821Y880078D01*
X190438D01*
X195517Y875000D02*
Y885157D01*
X203134D01*
X205674Y882617D01*
Y875000D01*
X210752D02*
X215830D01*
X213291D01*
Y885157D01*
X210752D01*
X233604D02*
X225987D01*
X223448Y882617D01*
Y877539D01*
X225987Y875000D01*
X233604D01*
X241222Y885157D02*
X246300D01*
X248839Y882617D01*
Y875000D01*
X241222D01*
X238683Y877539D01*
X241222Y880078D01*
X248839D01*
X253918Y875000D02*
X258996D01*
X256457D01*
Y890235D01*
X253918D01*
X281849D02*
Y875000D01*
X289466D01*
X292006Y877539D01*
Y887696D01*
X289466Y890235D01*
X281849D01*
X297084Y885157D02*
Y875000D01*
Y880078D01*
X299623Y882617D01*
X302162Y885157D01*
X304701D01*
X314858D02*
X319937D01*
X322476Y882617D01*
Y875000D01*
X314858D01*
X312319Y877539D01*
X314858Y880078D01*
X322476D01*
X327554Y885157D02*
Y877539D01*
X330093Y875000D01*
X332632Y877539D01*
X335172Y875000D01*
X337711Y877539D01*
Y885157D01*
X342789Y875000D02*
X347868D01*
X345328D01*
Y885157D01*
X342789D01*
X355485Y875000D02*
Y885157D01*
X363102D01*
X365642Y882617D01*
Y875000D01*
X375798Y869922D02*
X378338D01*
X380877Y872461D01*
Y885157D01*
X373259D01*
X370720Y882617D01*
Y877539D01*
X373259Y875000D01*
X380877D01*
X0Y912696D02*
X10157Y902539D01*
X0D02*
X10157Y912696D01*
X0Y907617D02*
X10157D01*
X5078Y902539D02*
Y912696D01*
X15235Y900000D02*
Y902539D01*
X17774D01*
Y900000D01*
X15235D01*
X38088Y912696D02*
X35549Y915235D01*
X30470D01*
X27931Y912696D01*
Y902539D01*
X30470Y900000D01*
X35549D01*
X38088Y902539D01*
Y907617D01*
X33009D01*
X43166Y915235D02*
Y900000D01*
X50784D01*
X53323Y902539D01*
Y905078D01*
X50784Y907617D01*
X43166D01*
X50784D01*
X53323Y910157D01*
Y912696D01*
X50784Y915235D01*
X43166D01*
X66019D02*
X60940D01*
X58401Y912696D01*
Y902539D01*
X60940Y900000D01*
X66019D01*
X68558Y902539D01*
Y912696D01*
X66019Y915235D01*
X88871Y907617D02*
X99028D01*
X119341Y915235D02*
Y900000D01*
X126959D01*
X129498Y902539D01*
Y905078D01*
X126959Y907617D01*
X119341D01*
X126959D01*
X129498Y910157D01*
Y912696D01*
X126959Y915235D01*
X119341D01*
X137116Y900000D02*
X142194D01*
X144733Y902539D01*
Y907617D01*
X142194Y910157D01*
X137116D01*
X134577Y907617D01*
Y902539D01*
X137116Y900000D01*
X152351Y912696D02*
Y910157D01*
X149811D01*
X154890D01*
X152351D01*
Y902539D01*
X154890Y900000D01*
X165047Y912696D02*
Y910157D01*
X162507D01*
X167586D01*
X165047D01*
Y902539D01*
X167586Y900000D01*
X177743D02*
X182821D01*
X185360Y902539D01*
Y907617D01*
X182821Y910157D01*
X177743D01*
X175203Y907617D01*
Y902539D01*
X177743Y900000D01*
X190438D02*
Y910157D01*
X192978D01*
X195517Y907617D01*
Y900000D01*
Y907617D01*
X198056Y910157D01*
X200595Y907617D01*
Y900000D01*
X228526Y915235D02*
X223448D01*
X220909Y912696D01*
Y902539D01*
X223448Y900000D01*
X228526D01*
X231065Y902539D01*
Y912696D01*
X228526Y915235D01*
X236144Y910157D02*
X241222Y900000D01*
X246300Y910157D01*
X258996Y900000D02*
X253918D01*
X251379Y902539D01*
Y907617D01*
X253918Y910157D01*
X258996D01*
X261535Y907617D01*
Y905078D01*
X251379D01*
X266614Y910157D02*
Y900000D01*
Y905078D01*
X269153Y907617D01*
X271692Y910157D01*
X274231D01*
X281849Y900000D02*
X286927D01*
X284388D01*
Y915235D01*
X281849D01*
X297084Y910157D02*
X302162D01*
X304701Y907617D01*
Y900000D01*
X297084D01*
X294545Y902539D01*
X297084Y905078D01*
X304701D01*
X309780Y910157D02*
Y902539D01*
X312319Y900000D01*
X319937D01*
Y897461D01*
X317397Y894922D01*
X314858D01*
X319937Y900000D02*
Y910157D01*
X0Y937696D02*
X10157Y927539D01*
X0D02*
X10157Y937696D01*
X0Y932617D02*
X10157D01*
X5078Y927539D02*
Y937696D01*
X15235Y925000D02*
Y927539D01*
X17774D01*
Y925000D01*
X15235D01*
X38088Y937696D02*
X35549Y940235D01*
X30470D01*
X27931Y937696D01*
Y927539D01*
X30470Y925000D01*
X35549D01*
X38088Y927539D01*
Y932617D01*
X33009D01*
X43166Y940235D02*
Y925000D01*
X50784D01*
X53323Y927539D01*
Y930078D01*
X50784Y932617D01*
X43166D01*
X50784D01*
X53323Y935157D01*
Y937696D01*
X50784Y940235D01*
X43166D01*
X68558Y937696D02*
X66019Y940235D01*
X60940D01*
X58401Y937696D01*
Y935157D01*
X60940Y932617D01*
X66019D01*
X68558Y930078D01*
Y927539D01*
X66019Y925000D01*
X60940D01*
X58401Y927539D01*
X88871Y932617D02*
X99028D01*
X119341Y940235D02*
Y925000D01*
X126959D01*
X129498Y927539D01*
Y930078D01*
X126959Y932617D01*
X119341D01*
X126959D01*
X129498Y935157D01*
Y937696D01*
X126959Y940235D01*
X119341D01*
X137116Y925000D02*
X142194D01*
X144733Y927539D01*
Y932617D01*
X142194Y935157D01*
X137116D01*
X134577Y932617D01*
Y927539D01*
X137116Y925000D01*
X152351Y937696D02*
Y935157D01*
X149811D01*
X154890D01*
X152351D01*
Y927539D01*
X154890Y925000D01*
X165047Y937696D02*
Y935157D01*
X162507D01*
X167586D01*
X165047D01*
Y927539D01*
X167586Y925000D01*
X177743D02*
X182821D01*
X185360Y927539D01*
Y932617D01*
X182821Y935157D01*
X177743D01*
X175203Y932617D01*
Y927539D01*
X177743Y925000D01*
X190438D02*
Y935157D01*
X192978D01*
X195517Y932617D01*
Y925000D01*
Y932617D01*
X198056Y935157D01*
X200595Y932617D01*
Y925000D01*
X231065Y937696D02*
X228526Y940235D01*
X223448D01*
X220909Y937696D01*
Y935157D01*
X223448Y932617D01*
X228526D01*
X231065Y930078D01*
Y927539D01*
X228526Y925000D01*
X223448D01*
X220909Y927539D01*
X238683Y925000D02*
X243761D01*
X246300Y927539D01*
Y932617D01*
X243761Y935157D01*
X238683D01*
X236144Y932617D01*
Y927539D01*
X238683Y925000D01*
X251379D02*
X256457D01*
X253918D01*
Y940235D01*
X251379D01*
X274231D02*
Y925000D01*
X266614D01*
X264075Y927539D01*
Y932617D01*
X266614Y935157D01*
X274231D01*
X286927Y925000D02*
X281849D01*
X279310Y927539D01*
Y932617D01*
X281849Y935157D01*
X286927D01*
X289466Y932617D01*
Y930078D01*
X279310D01*
X294545Y935157D02*
Y925000D01*
Y930078D01*
X297084Y932617D01*
X299623Y935157D01*
X302162D01*
X0Y962696D02*
X10157Y952539D01*
X0D02*
X10157Y962696D01*
X0Y957617D02*
X10157D01*
X5078Y952539D02*
Y962696D01*
X15235Y950000D02*
Y952539D01*
X17774D01*
Y950000D01*
X15235D01*
X38088Y962696D02*
X35549Y965235D01*
X30470D01*
X27931Y962696D01*
Y952539D01*
X30470Y950000D01*
X35549D01*
X38088Y952539D01*
Y957617D01*
X33009D01*
X43166Y965235D02*
Y950000D01*
X50784D01*
X53323Y952539D01*
Y955078D01*
X50784Y957617D01*
X43166D01*
X50784D01*
X53323Y960157D01*
Y962696D01*
X50784Y965235D01*
X43166D01*
X58401D02*
Y950000D01*
X68558D01*
X88871Y957617D02*
X99028D01*
X119341Y965235D02*
Y950000D01*
X129498D01*
X144733D02*
X134577D01*
X144733Y960157D01*
Y962696D01*
X142194Y965235D01*
X137116D01*
X134577Y962696D01*
X0Y987696D02*
X10157Y977539D01*
X0D02*
X10157Y987696D01*
X0Y982617D02*
X10157D01*
X5078Y977539D02*
Y987696D01*
X15235Y975000D02*
Y977539D01*
X17774D01*
Y975000D01*
X15235D01*
X38088Y987696D02*
X35549Y990235D01*
X30470D01*
X27931Y987696D01*
Y977539D01*
X30470Y975000D01*
X35549D01*
X38088Y977539D01*
Y982617D01*
X33009D01*
X43166Y990235D02*
X53323D01*
X48244D01*
Y975000D01*
X58401Y990235D02*
Y975000D01*
X68558D01*
X88871Y982617D02*
X99028D01*
X119341Y990235D02*
Y975000D01*
X129498D01*
X134577D02*
X139655D01*
X137116D01*
Y990235D01*
X134577Y987696D01*
X0Y1012696D02*
X10157Y1002539D01*
X0D02*
X10157Y1012696D01*
X0Y1007617D02*
X10157D01*
X5078Y1002539D02*
Y1012696D01*
X15235Y1000000D02*
Y1002539D01*
X17774D01*
Y1000000D01*
X15235D01*
X38088Y1012696D02*
X35549Y1015235D01*
X30470D01*
X27931Y1012696D01*
Y1002539D01*
X30470Y1000000D01*
X35549D01*
X38088Y1002539D01*
Y1007617D01*
X33009D01*
X43166Y1015235D02*
X53323D01*
X48244D01*
Y1000000D01*
X68558Y1012696D02*
X66019Y1015235D01*
X60940D01*
X58401Y1012696D01*
Y1010157D01*
X60940Y1007617D01*
X66019D01*
X68558Y1005078D01*
Y1002539D01*
X66019Y1000000D01*
X60940D01*
X58401Y1002539D01*
X88871Y1007617D02*
X99028D01*
X119341Y1015235D02*
X129498D01*
X124420D01*
Y1000000D01*
X137116D02*
X142194D01*
X144733Y1002539D01*
Y1007617D01*
X142194Y1010157D01*
X137116D01*
X134577Y1007617D01*
Y1002539D01*
X137116Y1000000D01*
X149811Y994922D02*
Y1010157D01*
X157429D01*
X159968Y1007617D01*
Y1002539D01*
X157429Y1000000D01*
X149811D01*
X190438Y1012696D02*
X187899Y1015235D01*
X182821D01*
X180282Y1012696D01*
Y1010157D01*
X182821Y1007617D01*
X187899D01*
X190438Y1005078D01*
Y1002539D01*
X187899Y1000000D01*
X182821D01*
X180282Y1002539D01*
X198056Y1000000D02*
X203134D01*
X205674Y1002539D01*
Y1007617D01*
X203134Y1010157D01*
X198056D01*
X195517Y1007617D01*
Y1002539D01*
X198056Y1000000D01*
X210752D02*
X215830D01*
X213291D01*
Y1015235D01*
X210752D01*
X233604D02*
Y1000000D01*
X225987D01*
X223448Y1002539D01*
Y1007617D01*
X225987Y1010157D01*
X233604D01*
X246300Y1000000D02*
X241222D01*
X238683Y1002539D01*
Y1007617D01*
X241222Y1010157D01*
X246300D01*
X248839Y1007617D01*
Y1005078D01*
X238683D01*
X253918Y1010157D02*
Y1000000D01*
Y1005078D01*
X256457Y1007617D01*
X258996Y1010157D01*
X261535D01*
X0Y1037696D02*
X10157Y1027539D01*
X0D02*
X10157Y1037696D01*
X0Y1032617D02*
X10157D01*
X5078Y1027539D02*
Y1037696D01*
X15235Y1025000D02*
Y1027539D01*
X17774D01*
Y1025000D01*
X15235D01*
X38088Y1037696D02*
X35549Y1040235D01*
X30470D01*
X27931Y1037696D01*
Y1027539D01*
X30470Y1025000D01*
X35549D01*
X38088Y1027539D01*
Y1032617D01*
X33009D01*
X43166Y1040235D02*
X53323D01*
X48244D01*
Y1025000D01*
X58401D02*
Y1040235D01*
X66019D01*
X68558Y1037696D01*
Y1032617D01*
X66019Y1030078D01*
X58401D01*
X88871Y1032617D02*
X99028D01*
X119341Y1040235D02*
X129498D01*
X124420D01*
Y1025000D01*
X137116D02*
X142194D01*
X144733Y1027539D01*
Y1032617D01*
X142194Y1035157D01*
X137116D01*
X134577Y1032617D01*
Y1027539D01*
X137116Y1025000D01*
X149811Y1019922D02*
Y1035157D01*
X157429D01*
X159968Y1032617D01*
Y1027539D01*
X157429Y1025000D01*
X149811D01*
X180282D02*
Y1040235D01*
X187899D01*
X190438Y1037696D01*
Y1032617D01*
X187899Y1030078D01*
X180282D01*
X198056Y1035157D02*
X203134D01*
X205674Y1032617D01*
Y1025000D01*
X198056D01*
X195517Y1027539D01*
X198056Y1030078D01*
X205674D01*
X210752Y1025000D02*
X218369D01*
X220909Y1027539D01*
X218369Y1030078D01*
X213291D01*
X210752Y1032617D01*
X213291Y1035157D01*
X220909D01*
X228526Y1037696D02*
Y1035157D01*
X225987D01*
X231065D01*
X228526D01*
Y1027539D01*
X231065Y1025000D01*
X246300D02*
X241222D01*
X238683Y1027539D01*
Y1032617D01*
X241222Y1035157D01*
X246300D01*
X248839Y1032617D01*
Y1030078D01*
X238683D01*
X0Y1062696D02*
X10157Y1052539D01*
X0D02*
X10157Y1062696D01*
X0Y1057617D02*
X10157D01*
X5078Y1052539D02*
Y1062696D01*
X15235Y1050000D02*
Y1052539D01*
X17774D01*
Y1050000D01*
X15235D01*
X38088Y1062696D02*
X35549Y1065235D01*
X30470D01*
X27931Y1062696D01*
Y1052539D01*
X30470Y1050000D01*
X35549D01*
X38088Y1052539D01*
Y1057617D01*
X33009D01*
X43166Y1065235D02*
X53323D01*
X48244D01*
Y1050000D01*
X66019Y1065235D02*
X60940D01*
X58401Y1062696D01*
Y1052539D01*
X60940Y1050000D01*
X66019D01*
X68558Y1052539D01*
Y1062696D01*
X66019Y1065235D01*
X88871Y1057617D02*
X99028D01*
X119341Y1065235D02*
X129498D01*
X124420D01*
Y1050000D01*
X137116D02*
X142194D01*
X144733Y1052539D01*
Y1057617D01*
X142194Y1060157D01*
X137116D01*
X134577Y1057617D01*
Y1052539D01*
X137116Y1050000D01*
X149811Y1044922D02*
Y1060157D01*
X157429D01*
X159968Y1057617D01*
Y1052539D01*
X157429Y1050000D01*
X149811D01*
X187899Y1065235D02*
X182821D01*
X180282Y1062696D01*
Y1052539D01*
X182821Y1050000D01*
X187899D01*
X190438Y1052539D01*
Y1062696D01*
X187899Y1065235D01*
X195517Y1060157D02*
X200595Y1050000D01*
X205674Y1060157D01*
X218369Y1050000D02*
X213291D01*
X210752Y1052539D01*
Y1057617D01*
X213291Y1060157D01*
X218369D01*
X220909Y1057617D01*
Y1055078D01*
X210752D01*
X225987Y1060157D02*
Y1050000D01*
Y1055078D01*
X228526Y1057617D01*
X231065Y1060157D01*
X233604D01*
X241222Y1050000D02*
X246300D01*
X243761D01*
Y1065235D01*
X241222D01*
X256457Y1060157D02*
X261535D01*
X264075Y1057617D01*
Y1050000D01*
X256457D01*
X253918Y1052539D01*
X256457Y1055078D01*
X264075D01*
X269153Y1060157D02*
Y1052539D01*
X271692Y1050000D01*
X279310D01*
Y1047461D01*
X276770Y1044922D01*
X274231D01*
X279310Y1050000D02*
Y1060157D01*
X10157Y1090235D02*
X0D01*
Y1082617D01*
X5078D01*
X0D01*
Y1075000D01*
X15235D02*
X20313D01*
X17774D01*
Y1085157D01*
X15235D01*
X27931Y1075000D02*
X33009D01*
X30470D01*
Y1090235D01*
X27931D01*
X48244Y1075000D02*
X43166D01*
X40627Y1077539D01*
Y1082617D01*
X43166Y1085157D01*
X48244D01*
X50784Y1082617D01*
Y1080078D01*
X40627D01*
X55862Y1075000D02*
X63479D01*
X66019Y1077539D01*
X63479Y1080078D01*
X58401D01*
X55862Y1082617D01*
X58401Y1085157D01*
X66019D01*
X0Y812696D02*
X10157Y802539D01*
X0D02*
X10157Y812696D01*
X0Y807617D02*
X10157D01*
X5078Y802539D02*
Y812696D01*
X15235Y800000D02*
Y802539D01*
X17774D01*
Y800000D01*
X15235D01*
X38088Y812696D02*
X35549Y815235D01*
X30470D01*
X27931Y812696D01*
Y802539D01*
X30470Y800000D01*
X35549D01*
X38088Y802539D01*
Y807617D01*
X33009D01*
X43166Y800000D02*
Y815235D01*
X48244Y810157D01*
X53323Y815235D01*
Y800000D01*
X68558D02*
X58401D01*
X68558Y810157D01*
Y812696D01*
X66019Y815235D01*
X60940D01*
X58401Y812696D01*
X73636D02*
X76175Y815235D01*
X81254D01*
X83793Y812696D01*
Y810157D01*
X81254Y807617D01*
X83793Y805078D01*
Y802539D01*
X81254Y800000D01*
X76175D01*
X73636Y802539D01*
Y805078D01*
X76175Y807617D01*
X73636Y810157D01*
Y812696D01*
X76175Y807617D02*
X81254D01*
X104106D02*
X114263D01*
X134577Y815235D02*
Y800000D01*
X142194D01*
X144733Y802539D01*
Y805078D01*
X142194Y807617D01*
X134577D01*
X142194D01*
X144733Y810157D01*
Y812696D01*
X142194Y815235D01*
X134577D01*
X152351Y800000D02*
X157429D01*
X159968Y802539D01*
Y807617D01*
X157429Y810157D01*
X152351D01*
X149811Y807617D01*
Y802539D01*
X152351Y800000D01*
X167586Y810157D02*
X172664D01*
X175203Y807617D01*
Y800000D01*
X167586D01*
X165047Y802539D01*
X167586Y805078D01*
X175203D01*
X180282Y810157D02*
Y800000D01*
Y805078D01*
X182821Y807617D01*
X185360Y810157D01*
X187899D01*
X205674Y815235D02*
Y800000D01*
X198056D01*
X195517Y802539D01*
Y807617D01*
X198056Y810157D01*
X205674D01*
X233604Y815235D02*
X228526D01*
X225987Y812696D01*
Y802539D01*
X228526Y800000D01*
X233604D01*
X236144Y802539D01*
Y812696D01*
X233604Y815235D01*
X241222Y810157D02*
Y802539D01*
X243761Y800000D01*
X251379D01*
Y810157D01*
X258996Y812696D02*
Y810157D01*
X256457D01*
X261535D01*
X258996D01*
Y802539D01*
X261535Y800000D01*
X269153D02*
X274231D01*
X271692D01*
Y815235D01*
X269153D01*
X281849Y800000D02*
X286927D01*
X284388D01*
Y810157D01*
X281849D01*
X294545Y800000D02*
Y810157D01*
X302162D01*
X304701Y807617D01*
Y800000D01*
X317397D02*
X312319D01*
X309780Y802539D01*
Y807617D01*
X312319Y810157D01*
X317397D01*
X319937Y807617D01*
Y805078D01*
X309780D01*
X1075000Y1090235D02*
Y1075000D01*
X1082617D01*
X1085157Y1077539D01*
Y1080078D01*
X1082617Y1082617D01*
X1075000D01*
X1082617D01*
X1085157Y1085157D01*
Y1087696D01*
X1082617Y1090235D01*
X1075000D01*
X1092774Y1075000D02*
X1097853D01*
X1100392Y1077539D01*
Y1082617D01*
X1097853Y1085157D01*
X1092774D01*
X1090235Y1082617D01*
Y1077539D01*
X1092774Y1075000D01*
X1108009Y1085157D02*
X1113088D01*
X1115627Y1082617D01*
Y1075000D01*
X1108009D01*
X1105470Y1077539D01*
X1108009Y1080078D01*
X1115627D01*
X1120705Y1085157D02*
Y1075000D01*
Y1080078D01*
X1123244Y1082617D01*
X1125784Y1085157D01*
X1128323D01*
X1146097Y1090235D02*
Y1075000D01*
X1138480D01*
X1135940Y1077539D01*
Y1082617D01*
X1138480Y1085157D01*
X1146097D01*
X1166410Y1075000D02*
X1171489D01*
X1168950D01*
Y1085157D01*
X1166410D01*
X1179106Y1075000D02*
Y1085157D01*
X1186724D01*
X1189263Y1082617D01*
Y1075000D01*
X1196881D02*
Y1087696D01*
Y1082617D01*
X1194341D01*
X1199420D01*
X1196881D01*
Y1087696D01*
X1199420Y1090235D01*
X1209576Y1075000D02*
X1214655D01*
X1217194Y1077539D01*
Y1082617D01*
X1214655Y1085157D01*
X1209576D01*
X1207037Y1082617D01*
Y1077539D01*
X1209576Y1075000D01*
X1075000Y1050000D02*
Y1065235D01*
X1080078Y1060157D01*
X1085157Y1065235D01*
Y1050000D01*
X1090235D02*
X1095313D01*
X1092774D01*
Y1060157D01*
X1090235D01*
X1102931Y1050000D02*
Y1060157D01*
X1110548D01*
X1113088Y1057617D01*
Y1050000D01*
X1118166D02*
X1123244D01*
X1120705D01*
Y1060157D01*
X1118166D01*
X1130862Y1050000D02*
Y1060157D01*
X1133401D01*
X1135940Y1057617D01*
Y1050000D01*
Y1057617D01*
X1138480Y1060157D01*
X1141019Y1057617D01*
Y1050000D01*
X1146097Y1060157D02*
Y1052539D01*
X1148636Y1050000D01*
X1156254D01*
Y1060157D01*
X1161332Y1050000D02*
Y1060157D01*
X1163871D01*
X1166410Y1057617D01*
Y1050000D01*
Y1057617D01*
X1168950Y1060157D01*
X1171489Y1057617D01*
Y1050000D01*
X1191802Y1065235D02*
X1201959D01*
X1196881D01*
Y1050000D01*
X1207037Y1060157D02*
Y1050000D01*
Y1055078D01*
X1209576Y1057617D01*
X1212116Y1060157D01*
X1214655D01*
X1224811D02*
X1229890D01*
X1232429Y1057617D01*
Y1050000D01*
X1224811D01*
X1222272Y1052539D01*
X1224811Y1055078D01*
X1232429D01*
X1247664Y1060157D02*
X1240047D01*
X1237507Y1057617D01*
Y1052539D01*
X1240047Y1050000D01*
X1247664D01*
X1252742D02*
Y1065235D01*
Y1055078D02*
X1260360Y1060157D01*
X1252742Y1055078D02*
X1260360Y1050000D01*
X1267978Y1060157D02*
X1270517D01*
Y1057617D01*
X1267978D01*
Y1060157D01*
Y1052539D02*
X1270517D01*
Y1050000D01*
X1267978D01*
Y1052539D01*
X1306065Y1050000D02*
X1295909D01*
X1306065Y1060157D01*
Y1062696D01*
X1303526Y1065235D01*
X1298448D01*
X1295909Y1062696D01*
X1311144D02*
X1313683Y1065235D01*
X1318761D01*
X1321300Y1062696D01*
Y1052539D01*
X1318761Y1050000D01*
X1313683D01*
X1311144Y1052539D01*
Y1062696D01*
X1326379D02*
X1328918Y1065235D01*
X1333996D01*
X1336535Y1062696D01*
Y1052539D01*
X1333996Y1050000D01*
X1328918D01*
X1326379Y1052539D01*
Y1062696D01*
X1341614Y1060157D02*
Y1052539D01*
X1344153Y1050000D01*
X1351770D01*
Y1060157D01*
X1356849Y1050000D02*
Y1060157D01*
X1359388D01*
X1361927Y1057617D01*
Y1050000D01*
Y1057617D01*
X1364466Y1060157D01*
X1367005Y1057617D01*
Y1050000D01*
X1075000Y1025000D02*
Y1040235D01*
X1080078Y1035157D01*
X1085157Y1040235D01*
Y1025000D01*
X1090235D02*
X1095313D01*
X1092774D01*
Y1035157D01*
X1090235D01*
X1102931Y1025000D02*
Y1035157D01*
X1110548D01*
X1113088Y1032617D01*
Y1025000D01*
X1118166D02*
X1123244D01*
X1120705D01*
Y1035157D01*
X1118166D01*
X1130862Y1025000D02*
Y1035157D01*
X1133401D01*
X1135940Y1032617D01*
Y1025000D01*
Y1032617D01*
X1138480Y1035157D01*
X1141019Y1032617D01*
Y1025000D01*
X1146097Y1035157D02*
Y1027539D01*
X1148636Y1025000D01*
X1156254D01*
Y1035157D01*
X1161332Y1025000D02*
Y1035157D01*
X1163871D01*
X1166410Y1032617D01*
Y1025000D01*
Y1032617D01*
X1168950Y1035157D01*
X1171489Y1032617D01*
Y1025000D01*
X1201959Y1037696D02*
X1199420Y1040235D01*
X1194341D01*
X1191802Y1037696D01*
Y1027539D01*
X1194341Y1025000D01*
X1199420D01*
X1201959Y1027539D01*
Y1032617D01*
X1196881D01*
X1209576Y1035157D02*
X1214655D01*
X1217194Y1032617D01*
Y1025000D01*
X1209576D01*
X1207037Y1027539D01*
X1209576Y1030078D01*
X1217194D01*
X1222272Y1019922D02*
Y1035157D01*
X1229890D01*
X1232429Y1032617D01*
Y1027539D01*
X1229890Y1025000D01*
X1222272D01*
X1237507Y1035157D02*
X1240047D01*
Y1032617D01*
X1237507D01*
Y1035157D01*
Y1027539D02*
X1240047D01*
Y1025000D01*
X1237507D01*
Y1027539D01*
X1275595Y1025000D02*
X1265438D01*
X1275595Y1035157D01*
Y1037696D01*
X1273056Y1040235D01*
X1267978D01*
X1265438Y1037696D01*
X1280674D02*
X1283213Y1040235D01*
X1288291D01*
X1290830Y1037696D01*
Y1027539D01*
X1288291Y1025000D01*
X1283213D01*
X1280674Y1027539D01*
Y1037696D01*
X1295909D02*
X1298448Y1040235D01*
X1303526D01*
X1306065Y1037696D01*
Y1027539D01*
X1303526Y1025000D01*
X1298448D01*
X1295909Y1027539D01*
Y1037696D01*
X1311144Y1035157D02*
Y1027539D01*
X1313683Y1025000D01*
X1321300D01*
Y1035157D01*
X1326379Y1025000D02*
Y1035157D01*
X1328918D01*
X1331457Y1032617D01*
Y1025000D01*
Y1032617D01*
X1333996Y1035157D01*
X1336535Y1032617D01*
Y1025000D01*
X1075000Y1000000D02*
Y1015235D01*
X1080078Y1010157D01*
X1085157Y1015235D01*
Y1000000D01*
X1090235D02*
X1095313D01*
X1092774D01*
Y1010157D01*
X1090235D01*
X1102931Y1000000D02*
Y1010157D01*
X1110548D01*
X1113088Y1007617D01*
Y1000000D01*
X1118166D02*
X1123244D01*
X1120705D01*
Y1010157D01*
X1118166D01*
X1130862Y1000000D02*
Y1010157D01*
X1133401D01*
X1135940Y1007617D01*
Y1000000D01*
Y1007617D01*
X1138480Y1010157D01*
X1141019Y1007617D01*
Y1000000D01*
X1146097Y1010157D02*
Y1002539D01*
X1148636Y1000000D01*
X1156254D01*
Y1010157D01*
X1161332Y1000000D02*
Y1010157D01*
X1163871D01*
X1166410Y1007617D01*
Y1000000D01*
Y1007617D01*
X1168950Y1010157D01*
X1171489Y1007617D01*
Y1000000D01*
X1191802Y1015235D02*
X1201959D01*
X1196881D01*
Y1000000D01*
X1207037Y1015235D02*
Y1000000D01*
Y1007617D01*
X1209576Y1010157D01*
X1214655D01*
X1217194Y1007617D01*
Y1000000D01*
X1222272Y1010157D02*
Y1000000D01*
Y1005078D01*
X1224811Y1007617D01*
X1227351Y1010157D01*
X1229890D01*
X1240047Y1000000D02*
X1245125D01*
X1247664Y1002539D01*
Y1007617D01*
X1245125Y1010157D01*
X1240047D01*
X1237507Y1007617D01*
Y1002539D01*
X1240047Y1000000D01*
X1252742Y1010157D02*
Y1002539D01*
X1255282Y1000000D01*
X1262899D01*
Y1010157D01*
X1273056Y994922D02*
X1275595D01*
X1278134Y997461D01*
Y1010157D01*
X1270517D01*
X1267978Y1007617D01*
Y1002539D01*
X1270517Y1000000D01*
X1278134D01*
X1283213Y1015235D02*
Y1000000D01*
Y1007617D01*
X1285752Y1010157D01*
X1290830D01*
X1293369Y1007617D01*
Y1000000D01*
X1313683Y1015235D02*
Y1000000D01*
Y1007617D01*
X1323840D01*
Y1015235D01*
Y1000000D01*
X1331457D02*
X1336535D01*
X1339075Y1002539D01*
Y1007617D01*
X1336535Y1010157D01*
X1331457D01*
X1328918Y1007617D01*
Y1002539D01*
X1331457Y1000000D01*
X1344153D02*
X1349231D01*
X1346692D01*
Y1015235D01*
X1344153D01*
X1364466Y1000000D02*
X1359388D01*
X1356849Y1002539D01*
Y1007617D01*
X1359388Y1010157D01*
X1364466D01*
X1367005Y1007617D01*
Y1005078D01*
X1356849D01*
X1387319Y1015235D02*
Y1005078D01*
X1392397Y1000000D01*
X1397476Y1005078D01*
Y1015235D01*
X1402554D02*
X1407632D01*
X1405093D01*
Y1000000D01*
X1402554D01*
X1407632D01*
X1415250D02*
Y1010157D01*
X1420328Y1015235D01*
X1425407Y1010157D01*
Y1000000D01*
Y1007617D01*
X1415250D01*
X1430485Y1010157D02*
X1433024D01*
Y1007617D01*
X1430485D01*
Y1010157D01*
Y1002539D02*
X1433024D01*
Y1000000D01*
X1430485D01*
Y1002539D01*
X1458416Y1012696D02*
X1460955Y1015235D01*
X1466033D01*
X1468573Y1012696D01*
Y1002539D01*
X1466033Y1000000D01*
X1460955D01*
X1458416Y1002539D01*
Y1012696D01*
X1473651Y1000000D02*
Y1002539D01*
X1476190D01*
Y1000000D01*
X1473651D01*
X1496504Y1015235D02*
X1491425Y1012696D01*
X1486347Y1007617D01*
Y1002539D01*
X1488886Y1000000D01*
X1493964D01*
X1496504Y1002539D01*
Y1005078D01*
X1493964Y1007617D01*
X1486347D01*
X1501582Y1000000D02*
Y1010157D01*
X1504121D01*
X1506660Y1007617D01*
Y1000000D01*
Y1007617D01*
X1509200Y1010157D01*
X1511739Y1007617D01*
Y1000000D01*
X1516817D02*
Y1010157D01*
X1519356D01*
X1521895Y1007617D01*
Y1000000D01*
Y1007617D01*
X1524435Y1010157D01*
X1526974Y1007617D01*
Y1000000D01*
X1552366D02*
X1547287Y1005078D01*
Y1010157D01*
X1552366Y1015235D01*
X1559983Y994922D02*
Y1010157D01*
X1567601D01*
X1570140Y1007617D01*
Y1002539D01*
X1567601Y1000000D01*
X1559983D01*
X1577757Y1010157D02*
X1582836D01*
X1585375Y1007617D01*
Y1000000D01*
X1577757D01*
X1575218Y1002539D01*
X1577757Y1005078D01*
X1585375D01*
X1600610Y1015235D02*
Y1000000D01*
X1592992D01*
X1590453Y1002539D01*
Y1007617D01*
X1592992Y1010157D01*
X1600610D01*
X1605688Y1000000D02*
X1610767Y1005078D01*
Y1010157D01*
X1605688Y1015235D01*
X1633619Y1000000D02*
X1643776Y1010157D01*
X1664089Y1012696D02*
X1666629Y1015235D01*
X1671707D01*
X1674246Y1012696D01*
Y1002539D01*
X1671707Y1000000D01*
X1666629D01*
X1664089Y1002539D01*
Y1012696D01*
X1679324Y1000000D02*
Y1002539D01*
X1681864D01*
Y1000000D01*
X1679324D01*
X1692020Y1012696D02*
X1694560Y1015235D01*
X1699638D01*
X1702177Y1012696D01*
Y1010157D01*
X1699638Y1007617D01*
X1697099D01*
X1699638D01*
X1702177Y1005078D01*
Y1002539D01*
X1699638Y1000000D01*
X1694560D01*
X1692020Y1002539D01*
X1707255Y1000000D02*
Y1010157D01*
X1709795D01*
X1712334Y1007617D01*
Y1000000D01*
Y1007617D01*
X1714873Y1010157D01*
X1717412Y1007617D01*
Y1000000D01*
X1722491D02*
Y1010157D01*
X1725030D01*
X1727569Y1007617D01*
Y1000000D01*
Y1007617D01*
X1730108Y1010157D01*
X1732647Y1007617D01*
Y1000000D01*
X1758039D02*
X1752961Y1005078D01*
Y1010157D01*
X1758039Y1015235D01*
X1775813D02*
Y1000000D01*
X1768196D01*
X1765656Y1002539D01*
Y1007617D01*
X1768196Y1010157D01*
X1775813D01*
X1780892D02*
Y1000000D01*
Y1005078D01*
X1783431Y1007617D01*
X1785970Y1010157D01*
X1788509D01*
X1796127Y1000000D02*
X1801205D01*
X1798666D01*
Y1010157D01*
X1796127D01*
X1808823Y1000000D02*
X1813901D01*
X1811362D01*
Y1015235D01*
X1808823D01*
X1821519Y1000000D02*
X1826597D01*
X1824058D01*
Y1015235D01*
X1821519D01*
X1834214Y1000000D02*
X1839293Y1005078D01*
Y1010157D01*
X1834214Y1015235D01*
X1846910Y1000000D02*
Y1002539D01*
X1849449D01*
Y1000000D01*
X1846910D01*
X1874841Y1015235D02*
Y1000000D01*
X1882459D01*
X1884998Y1002539D01*
Y1012696D01*
X1882459Y1015235D01*
X1874841D01*
X1890076Y1010157D02*
Y1000000D01*
Y1005078D01*
X1892615Y1007617D01*
X1895155Y1010157D01*
X1897694D01*
X1905311Y1000000D02*
X1910390D01*
X1907850D01*
Y1010157D01*
X1905311D01*
X1918007Y1000000D02*
X1923086D01*
X1920546D01*
Y1015235D01*
X1918007D01*
X1930703Y1000000D02*
X1935781D01*
X1933242D01*
Y1015235D01*
X1930703D01*
X1943399Y1000000D02*
X1948477D01*
X1945938D01*
Y1010157D01*
X1943399D01*
X1956095Y1000000D02*
Y1010157D01*
X1963712D01*
X1966252Y1007617D01*
Y1000000D01*
X1976408Y994922D02*
X1978947D01*
X1981487Y997461D01*
Y1010157D01*
X1973869D01*
X1971330Y1007617D01*
Y1002539D01*
X1973869Y1000000D01*
X1981487D01*
X1986565Y1010157D02*
X1989104D01*
Y1007617D01*
X1986565D01*
Y1010157D01*
Y1002539D02*
X1989104D01*
Y1000000D01*
X1986565D01*
Y1002539D01*
X2014496Y1015235D02*
Y1000000D01*
X2024653D01*
X2029731D02*
X2034809D01*
X2032270D01*
Y1015235D01*
X2029731Y1012696D01*
X2042427Y1007617D02*
X2052584D01*
X2057662Y1015235D02*
Y1000000D01*
X2067819D01*
X2083054D02*
X2072897D01*
X2083054Y1010157D01*
Y1012696D01*
X2080515Y1015235D01*
X2075436D01*
X2072897Y1012696D01*
X1075000Y950000D02*
X1080078D01*
X1077539D01*
Y965235D01*
X1075000Y962696D01*
X1087696Y950000D02*
Y952539D01*
X1090235D01*
Y950000D01*
X1087696D01*
X1125784Y965235D02*
X1115627D01*
Y957617D01*
X1120705D01*
X1115627D01*
Y950000D01*
X1130862Y965235D02*
X1135940D01*
X1133401D01*
Y950000D01*
X1130862D01*
X1135940D01*
X1143558D02*
Y965235D01*
X1153715Y950000D01*
Y965235D01*
X1158793D02*
X1163871D01*
X1161332D01*
Y950000D01*
X1158793D01*
X1163871D01*
X1181646Y962696D02*
X1179106Y965235D01*
X1174028D01*
X1171489Y962696D01*
Y960157D01*
X1174028Y957617D01*
X1179106D01*
X1181646Y955078D01*
Y952539D01*
X1179106Y950000D01*
X1174028D01*
X1171489Y952539D01*
X1186724Y965235D02*
Y950000D01*
Y957617D01*
X1196881D01*
Y965235D01*
Y950000D01*
X1212116Y965235D02*
X1201959D01*
Y950000D01*
X1212116D01*
X1201959Y957617D02*
X1207037D01*
X1217194Y965235D02*
Y950000D01*
X1224811D01*
X1227351Y952539D01*
Y962696D01*
X1224811Y965235D01*
X1217194D01*
X1247664Y950000D02*
Y965235D01*
X1255282D01*
X1257821Y962696D01*
Y957617D01*
X1255282Y955078D01*
X1247664D01*
X1262899Y950000D02*
Y960157D01*
X1267978Y965235D01*
X1273056Y960157D01*
Y950000D01*
Y957617D01*
X1262899D01*
X1278134Y950000D02*
Y965235D01*
X1288291Y950000D01*
Y965235D01*
X1303526D02*
X1293369D01*
Y950000D01*
X1303526D01*
X1293369Y957617D02*
X1298448D01*
X1308604Y965235D02*
Y950000D01*
X1318761D01*
X1339075Y965235D02*
X1349231D01*
X1344153D01*
Y950000D01*
X1354310Y965235D02*
Y950000D01*
Y957617D01*
X1364466D01*
Y965235D01*
Y950000D01*
X1369545Y965235D02*
X1374623D01*
X1372084D01*
Y950000D01*
X1369545D01*
X1374623D01*
X1392397Y962696D02*
X1389858Y965235D01*
X1384780D01*
X1382241Y962696D01*
Y952539D01*
X1384780Y950000D01*
X1389858D01*
X1392397Y952539D01*
X1397476Y965235D02*
Y950000D01*
Y955078D01*
X1407632Y965235D01*
X1400015Y957617D01*
X1407632Y950000D01*
X1412711D02*
Y965235D01*
X1422867Y950000D01*
Y965235D01*
X1438103D02*
X1427946D01*
Y950000D01*
X1438103D01*
X1427946Y957617D02*
X1433024D01*
X1453338Y962696D02*
X1450798Y965235D01*
X1445720D01*
X1443181Y962696D01*
Y960157D01*
X1445720Y957617D01*
X1450798D01*
X1453338Y955078D01*
Y952539D01*
X1450798Y950000D01*
X1445720D01*
X1443181Y952539D01*
X1468573Y962696D02*
X1466033Y965235D01*
X1460955D01*
X1458416Y962696D01*
Y960157D01*
X1460955Y957617D01*
X1466033D01*
X1468573Y955078D01*
Y952539D01*
X1466033Y950000D01*
X1460955D01*
X1458416Y952539D01*
X1488886Y965235D02*
X1493964D01*
X1491425D01*
Y950000D01*
X1488886D01*
X1493964D01*
X1511739Y962696D02*
X1509200Y965235D01*
X1504121D01*
X1501582Y962696D01*
Y960157D01*
X1504121Y957617D01*
X1509200D01*
X1511739Y955078D01*
Y952539D01*
X1509200Y950000D01*
X1504121D01*
X1501582Y952539D01*
X1532052Y950000D02*
Y965235D01*
X1542209Y950000D01*
Y965235D01*
X1554905D02*
X1549826D01*
X1547287Y962696D01*
Y952539D01*
X1549826Y950000D01*
X1554905D01*
X1557444Y952539D01*
Y962696D01*
X1554905Y965235D01*
X1562522D02*
X1572679D01*
X1567601D01*
Y950000D01*
X1603149Y962696D02*
X1600610Y965235D01*
X1595532D01*
X1592992Y962696D01*
Y952539D01*
X1595532Y950000D01*
X1600610D01*
X1603149Y952539D01*
X1608228Y950000D02*
Y965235D01*
X1615845D01*
X1618384Y962696D01*
Y957617D01*
X1615845Y955078D01*
X1608228D01*
X1613306D02*
X1618384Y950000D01*
X1623463Y965235D02*
X1628541D01*
X1626002D01*
Y950000D01*
X1623463D01*
X1628541D01*
X1636158Y965235D02*
X1646315D01*
X1641237D01*
Y950000D01*
X1651393Y965235D02*
X1656472D01*
X1653933D01*
Y950000D01*
X1651393D01*
X1656472D01*
X1674246Y962696D02*
X1671707Y965235D01*
X1666629D01*
X1664089Y962696D01*
Y952539D01*
X1666629Y950000D01*
X1671707D01*
X1674246Y952539D01*
X1679324Y950000D02*
Y960157D01*
X1684403Y965235D01*
X1689481Y960157D01*
Y950000D01*
Y957617D01*
X1679324D01*
X1694560Y965235D02*
Y950000D01*
X1704716D01*
X1709795Y960157D02*
X1712334D01*
Y957617D01*
X1709795D01*
Y960157D01*
Y952539D02*
X1712334D01*
Y950000D01*
X1709795D01*
Y952539D01*
X1737726Y965235D02*
X1747882D01*
X1742804D01*
Y950000D01*
X1760578Y965235D02*
X1755500D01*
X1752961Y962696D01*
Y952539D01*
X1755500Y950000D01*
X1760578D01*
X1763117Y952539D01*
Y962696D01*
X1760578Y965235D01*
X1783431D02*
Y950000D01*
X1791048D01*
X1793587Y952539D01*
Y955078D01*
X1791048Y957617D01*
X1783431D01*
X1791048D01*
X1793587Y960157D01*
Y962696D01*
X1791048Y965235D01*
X1783431D01*
X1808823D02*
X1798666D01*
Y950000D01*
X1808823D01*
X1798666Y957617D02*
X1803744D01*
X1829136Y950000D02*
Y960157D01*
X1834214Y965235D01*
X1839293Y960157D01*
Y950000D01*
Y957617D01*
X1829136D01*
X1844371Y950000D02*
Y965235D01*
X1851989D01*
X1854528Y962696D01*
Y957617D01*
X1851989Y955078D01*
X1844371D01*
X1859606Y950000D02*
Y965235D01*
X1867224D01*
X1869763Y962696D01*
Y957617D01*
X1867224Y955078D01*
X1859606D01*
X1874841Y950000D02*
Y965235D01*
X1882459D01*
X1884998Y962696D01*
Y957617D01*
X1882459Y955078D01*
X1874841D01*
X1879920D02*
X1884998Y950000D01*
X1897694Y965235D02*
X1892616D01*
X1890076Y962696D01*
Y952539D01*
X1892616Y950000D01*
X1897694D01*
X1900233Y952539D01*
Y962696D01*
X1897694Y965235D01*
X1905311D02*
X1915468Y950000D01*
Y965235D02*
X1905311Y950000D01*
X1920547Y965235D02*
X1925625D01*
X1923086D01*
Y950000D01*
X1920547D01*
X1925625D01*
X1933242D02*
Y965235D01*
X1938321Y960157D01*
X1943399Y965235D01*
Y950000D01*
X1948477D02*
Y960157D01*
X1953556Y965235D01*
X1958634Y960157D01*
Y950000D01*
Y957617D01*
X1948477D01*
X1963712Y965235D02*
X1973869D01*
X1968791D01*
Y950000D01*
X1989104Y965235D02*
X1978948D01*
Y950000D01*
X1989104D01*
X1978948Y957617D02*
X1984026D01*
X1994183Y965235D02*
Y950000D01*
X2004339D01*
X2009418Y965235D02*
Y962696D01*
X2014496Y957617D01*
X2019574Y962696D01*
Y965235D01*
X2014496Y957617D02*
Y950000D01*
X2039888D02*
X2044966D01*
X2042427D01*
Y965235D01*
X2039888Y962696D01*
X2052584Y950000D02*
Y952539D01*
X2055123D01*
Y950000D01*
X2052584D01*
X2075436Y965235D02*
X2070358Y962696D01*
X2065280Y957617D01*
Y952539D01*
X2067819Y950000D01*
X2072897D01*
X2075436Y952539D01*
Y955078D01*
X2072897Y957617D01*
X2065280D01*
X2080515Y950000D02*
Y960157D01*
X2083054D01*
X2085593Y957617D01*
Y950000D01*
Y957617D01*
X2088132Y960157D01*
X2090671Y957617D01*
Y950000D01*
X2095750D02*
Y960157D01*
X2098289D01*
X2100828Y957617D01*
Y950000D01*
Y957617D01*
X2103367Y960157D01*
X2105907Y957617D01*
Y950000D01*
X1085157Y900000D02*
X1075000D01*
X1085157Y910157D01*
Y912696D01*
X1082617Y915235D01*
X1077539D01*
X1075000Y912696D01*
X1090235Y900000D02*
Y902539D01*
X1092774D01*
Y900000D01*
X1090235D01*
X1118166Y915235D02*
Y900000D01*
X1125784D01*
X1128323Y902539D01*
Y905078D01*
X1125784Y907617D01*
X1118166D01*
X1125784D01*
X1128323Y910157D01*
Y912696D01*
X1125784Y915235D01*
X1118166D01*
X1141019D02*
X1135940D01*
X1133401Y912696D01*
Y902539D01*
X1135940Y900000D01*
X1141019D01*
X1143558Y902539D01*
Y912696D01*
X1141019Y915235D01*
X1148636Y900000D02*
Y910157D01*
X1153715Y915235D01*
X1158793Y910157D01*
Y900000D01*
Y907617D01*
X1148636D01*
X1163871Y900000D02*
Y915235D01*
X1171489D01*
X1174028Y912696D01*
Y907617D01*
X1171489Y905078D01*
X1163871D01*
X1168950D02*
X1174028Y900000D01*
X1179106Y915235D02*
Y900000D01*
X1186724D01*
X1189263Y902539D01*
Y912696D01*
X1186724Y915235D01*
X1179106D01*
X1219733D02*
X1209576D01*
Y907617D01*
X1214655D01*
X1209576D01*
Y900000D01*
X1224811Y915235D02*
X1229890D01*
X1227351D01*
Y900000D01*
X1224811D01*
X1229890D01*
X1237507D02*
Y915235D01*
X1247664Y900000D01*
Y915235D01*
X1252742D02*
X1257821D01*
X1255282D01*
Y900000D01*
X1252742D01*
X1257821D01*
X1275595Y912696D02*
X1273056Y915235D01*
X1267978D01*
X1265438Y912696D01*
Y910157D01*
X1267978Y907617D01*
X1273056D01*
X1275595Y905078D01*
Y902539D01*
X1273056Y900000D01*
X1267978D01*
X1265438Y902539D01*
X1280674Y915235D02*
Y900000D01*
Y907617D01*
X1290830D01*
Y915235D01*
Y900000D01*
X1295909Y910157D02*
X1298448D01*
Y907617D01*
X1295909D01*
Y910157D01*
Y902539D02*
X1298448D01*
Y900000D01*
X1295909D01*
Y902539D01*
X1323840Y915235D02*
X1328918D01*
X1326379D01*
Y900000D01*
X1323840D01*
X1328918D01*
X1336535D02*
Y915235D01*
X1341614Y910157D01*
X1346692Y915235D01*
Y900000D01*
X1351770D02*
Y915235D01*
X1356849Y910157D01*
X1361927Y915235D01*
Y900000D01*
X1377162Y915235D02*
X1367005D01*
Y900000D01*
X1377162D01*
X1367005Y907617D02*
X1372084D01*
X1382241Y900000D02*
Y915235D01*
X1389858D01*
X1392397Y912696D01*
Y907617D01*
X1389858Y905078D01*
X1382241D01*
X1387319D02*
X1392397Y900000D01*
X1407632Y912696D02*
X1405093Y915235D01*
X1400015D01*
X1397476Y912696D01*
Y910157D01*
X1400015Y907617D01*
X1405093D01*
X1407632Y905078D01*
Y902539D01*
X1405093Y900000D01*
X1400015D01*
X1397476Y902539D01*
X1412711Y915235D02*
X1417789D01*
X1415250D01*
Y900000D01*
X1412711D01*
X1417789D01*
X1433024Y915235D02*
X1427946D01*
X1425407Y912696D01*
Y902539D01*
X1427946Y900000D01*
X1433024D01*
X1435563Y902539D01*
Y912696D01*
X1433024Y915235D01*
X1440642Y900000D02*
Y915235D01*
X1450798Y900000D01*
Y915235D01*
X1471112Y900000D02*
Y910157D01*
X1476190Y915235D01*
X1481269Y910157D01*
Y900000D01*
Y907617D01*
X1471112D01*
X1486347Y910157D02*
Y902539D01*
X1488886Y900000D01*
X1496504D01*
Y910157D01*
X1501582Y900000D02*
X1511739Y910157D01*
X1526974Y915235D02*
X1516817D01*
Y900000D01*
X1526974D01*
X1516817Y907617D02*
X1521895D01*
X1532052Y915235D02*
Y900000D01*
X1542209D01*
X1557444Y915235D02*
X1547287D01*
Y900000D01*
X1557444D01*
X1547287Y907617D02*
X1552366D01*
X1572679Y912696D02*
X1570140Y915235D01*
X1565061D01*
X1562522Y912696D01*
Y902539D01*
X1565061Y900000D01*
X1570140D01*
X1572679Y902539D01*
X1577757Y915235D02*
X1587914D01*
X1582836D01*
Y900000D01*
X1592992D02*
Y915235D01*
X1600610D01*
X1603149Y912696D01*
Y907617D01*
X1600610Y905078D01*
X1592992D01*
X1598071D02*
X1603149Y900000D01*
X1615845Y915235D02*
X1610767D01*
X1608228Y912696D01*
Y902539D01*
X1610767Y900000D01*
X1615845D01*
X1618384Y902539D01*
Y912696D01*
X1615845Y915235D01*
X1623463D02*
Y900000D01*
X1633619D01*
X1648854Y915235D02*
X1638698D01*
Y900000D01*
X1648854D01*
X1638698Y907617D02*
X1643776D01*
X1664089Y912696D02*
X1661550Y915235D01*
X1656472D01*
X1653933Y912696D01*
Y910157D01*
X1656472Y907617D01*
X1661550D01*
X1664089Y905078D01*
Y902539D01*
X1661550Y900000D01*
X1656472D01*
X1653933Y902539D01*
X1679324Y912696D02*
X1676785Y915235D01*
X1671707D01*
X1669168Y912696D01*
Y910157D01*
X1671707Y907617D01*
X1676785D01*
X1679324Y905078D01*
Y902539D01*
X1676785Y900000D01*
X1671707D01*
X1669168Y902539D01*
X1699638Y900000D02*
Y915235D01*
X1709795Y900000D01*
Y915235D01*
X1714873Y900000D02*
X1719951D01*
X1717412D01*
Y910157D01*
X1714873D01*
X1727569Y907617D02*
Y910157D01*
X1730108D01*
Y907617D01*
X1727569D01*
Y902539D02*
X1730108D01*
Y900000D01*
X1727569Y897461D01*
X1730108Y900000D02*
X1727569D01*
Y902539D01*
X1755500Y912696D02*
X1758039Y915235D01*
X1763117D01*
X1765657Y912696D01*
Y902539D01*
X1763117Y900000D01*
X1758039D01*
X1755500Y902539D01*
Y912696D01*
X1770735Y900000D02*
Y902539D01*
X1773274D01*
Y900000D01*
X1770735D01*
X1783431Y912696D02*
X1785970Y915235D01*
X1791048D01*
X1793587Y912696D01*
Y902539D01*
X1791048Y900000D01*
X1785970D01*
X1783431Y902539D01*
Y912696D01*
X1808823Y915235D02*
X1798666D01*
Y907617D01*
X1803744Y910157D01*
X1806283D01*
X1808823Y907617D01*
Y902539D01*
X1806283Y900000D01*
X1801205D01*
X1798666Y902539D01*
X1813901Y907617D02*
X1824058D01*
X1829136Y912696D02*
X1831675Y915235D01*
X1836754D01*
X1839293Y912696D01*
Y902539D01*
X1836754Y900000D01*
X1831675D01*
X1829136Y902539D01*
Y912696D01*
X1844371Y900000D02*
Y902539D01*
X1846910D01*
Y900000D01*
X1844371D01*
X1857067D02*
X1862145D01*
X1859606D01*
Y915235D01*
X1857067Y912696D01*
X1879920Y900000D02*
X1869763D01*
X1879920Y910157D01*
Y912696D01*
X1877380Y915235D01*
X1872302D01*
X1869763Y912696D01*
X1900233Y910157D02*
Y902539D01*
X1902772Y900000D01*
X1910390D01*
Y910157D01*
X1915468Y900000D02*
Y910157D01*
X1918007D01*
X1920546Y907617D01*
Y900000D01*
Y907617D01*
X1923086Y910157D01*
X1925625Y907617D01*
Y900000D01*
X1956095Y912696D02*
X1953556Y915235D01*
X1948477D01*
X1945938Y912696D01*
Y902539D01*
X1948477Y900000D01*
X1953556D01*
X1956095Y902539D01*
Y907617D01*
X1951017D01*
X1968791Y915235D02*
X1963712D01*
X1961173Y912696D01*
Y902539D01*
X1963712Y900000D01*
X1968791D01*
X1971330Y902539D01*
Y912696D01*
X1968791Y915235D01*
X1976408D02*
Y900000D01*
X1986565D01*
X1991643Y915235D02*
Y900000D01*
X1999261D01*
X2001800Y902539D01*
Y912696D01*
X1999261Y915235D01*
X1991643D01*
X2006879Y907617D02*
Y910157D01*
X2009418D01*
Y907617D01*
X2006879D01*
Y902539D02*
X2009418D01*
Y900000D01*
X2006879Y897461D01*
X2009418Y900000D02*
X2006879D01*
Y902539D01*
X2034810Y912696D02*
X2037349Y915235D01*
X2042427D01*
X2044966Y912696D01*
Y910157D01*
X2042427Y907617D01*
X2039888D01*
X2042427D01*
X2044966Y905078D01*
Y902539D01*
X2042427Y900000D01*
X2037349D01*
X2034810Y902539D01*
X2050045Y907617D02*
X2060201D01*
X2075436Y915235D02*
X2070358Y912696D01*
X2065280Y907617D01*
Y902539D01*
X2067819Y900000D01*
X2072897D01*
X2075436Y902539D01*
Y905078D01*
X2072897Y907617D01*
X2065280D01*
X2080515Y910157D02*
Y902539D01*
X2083054Y900000D01*
X2090671D01*
Y910157D01*
X2095750Y900000D02*
Y910157D01*
X2098289D01*
X2100828Y907617D01*
Y900000D01*
Y907617D01*
X2103367Y910157D01*
X2105907Y907617D01*
Y900000D01*
X2126220D02*
Y915235D01*
X2136377Y900000D01*
Y915235D01*
X2141455D02*
X2146533D01*
X2143994D01*
Y900000D01*
X2141455D01*
X2146533D01*
X2164308Y912696D02*
X2161768Y915235D01*
X2156690D01*
X2154151Y912696D01*
Y902539D01*
X2156690Y900000D01*
X2161768D01*
X2164308Y902539D01*
X2169386Y915235D02*
Y900000D01*
Y905078D01*
X2179543Y915235D01*
X2171925Y907617D01*
X2179543Y900000D01*
X2194778Y915235D02*
X2184621D01*
Y900000D01*
X2194778D01*
X2184621Y907617D02*
X2189699D01*
X2199856Y915235D02*
Y900000D01*
X2210013D01*
X1075000Y862696D02*
X1077539Y865235D01*
X1082617D01*
X1085157Y862696D01*
Y860157D01*
X1082617Y857617D01*
X1080078D01*
X1082617D01*
X1085157Y855078D01*
Y852539D01*
X1082617Y850000D01*
X1077539D01*
X1075000Y852539D01*
X1090235Y850000D02*
Y852539D01*
X1092774D01*
Y850000D01*
X1090235D01*
X1128323Y862696D02*
X1125784Y865235D01*
X1120705D01*
X1118166Y862696D01*
Y860157D01*
X1120705Y857617D01*
X1125784D01*
X1128323Y855078D01*
Y852539D01*
X1125784Y850000D01*
X1120705D01*
X1118166Y852539D01*
X1141019Y865235D02*
X1135940D01*
X1133401Y862696D01*
Y852539D01*
X1135940Y850000D01*
X1141019D01*
X1143558Y852539D01*
Y862696D01*
X1141019Y865235D01*
X1148636D02*
Y850000D01*
X1158793D01*
X1163871Y865235D02*
Y850000D01*
X1171489D01*
X1174028Y852539D01*
Y862696D01*
X1171489Y865235D01*
X1163871D01*
X1189263D02*
X1179106D01*
Y850000D01*
X1189263D01*
X1179106Y857617D02*
X1184185D01*
X1194341Y850000D02*
Y865235D01*
X1201959D01*
X1204498Y862696D01*
Y857617D01*
X1201959Y855078D01*
X1194341D01*
X1199420D02*
X1204498Y850000D01*
X1224811D02*
Y865235D01*
X1232429D01*
X1234968Y862696D01*
Y857617D01*
X1232429Y855078D01*
X1224811D01*
X1229890D02*
X1234968Y850000D01*
X1250203Y865235D02*
X1240047D01*
Y850000D01*
X1250203D01*
X1240047Y857617D02*
X1245125D01*
X1265438Y862696D02*
X1262899Y865235D01*
X1257821D01*
X1255282Y862696D01*
Y860157D01*
X1257821Y857617D01*
X1262899D01*
X1265438Y855078D01*
Y852539D01*
X1262899Y850000D01*
X1257821D01*
X1255282Y852539D01*
X1270517Y865235D02*
X1275595D01*
X1273056D01*
Y850000D01*
X1270517D01*
X1275595D01*
X1293369Y862696D02*
X1290830Y865235D01*
X1285752D01*
X1283213Y862696D01*
Y860157D01*
X1285752Y857617D01*
X1290830D01*
X1293369Y855078D01*
Y852539D01*
X1290830Y850000D01*
X1285752D01*
X1283213Y852539D01*
X1298448Y865235D02*
X1308604D01*
X1303526D01*
Y850000D01*
X1313683Y860157D02*
X1316222D01*
Y857617D01*
X1313683D01*
Y860157D01*
Y852539D02*
X1316222D01*
Y850000D01*
X1313683D01*
Y852539D01*
X1341614Y850000D02*
Y860157D01*
X1346692Y865235D01*
X1351770Y860157D01*
Y850000D01*
Y857617D01*
X1341614D01*
X1356849Y850000D02*
Y865235D01*
X1364466D01*
X1367005Y862696D01*
Y857617D01*
X1364466Y855078D01*
X1356849D01*
X1372084Y850000D02*
Y865235D01*
X1379701D01*
X1382241Y862696D01*
Y857617D01*
X1379701Y855078D01*
X1372084D01*
X1387319Y865235D02*
Y850000D01*
X1397476D01*
X1402554Y865235D02*
Y862696D01*
X1407632Y857617D01*
X1412711Y862696D01*
Y865235D01*
X1407632Y857617D02*
Y850000D01*
X1433024Y865235D02*
X1443181D01*
X1438103D01*
Y850000D01*
X1455877Y865235D02*
X1450798D01*
X1448259Y862696D01*
Y852539D01*
X1450798Y850000D01*
X1455877D01*
X1458416Y852539D01*
Y862696D01*
X1455877Y865235D01*
X1478729D02*
Y850000D01*
X1486347D01*
X1488886Y852539D01*
Y855078D01*
X1486347Y857617D01*
X1478729D01*
X1486347D01*
X1488886Y860157D01*
Y862696D01*
X1486347Y865235D01*
X1478729D01*
X1501582D02*
X1496504D01*
X1493965Y862696D01*
Y852539D01*
X1496504Y850000D01*
X1501582D01*
X1504121Y852539D01*
Y862696D01*
X1501582Y865235D01*
X1509200D02*
X1519356D01*
X1514278D01*
Y850000D01*
X1524435Y865235D02*
Y850000D01*
Y857617D01*
X1534591D01*
Y865235D01*
Y850000D01*
X1565061Y862696D02*
X1562522Y865235D01*
X1557444D01*
X1554905Y862696D01*
Y860157D01*
X1557444Y857617D01*
X1562522D01*
X1565061Y855078D01*
Y852539D01*
X1562522Y850000D01*
X1557444D01*
X1554905Y852539D01*
X1570140Y865235D02*
X1575218D01*
X1572679D01*
Y850000D01*
X1570140D01*
X1575218D01*
X1582836Y865235D02*
Y850000D01*
X1590453D01*
X1592992Y852539D01*
Y862696D01*
X1590453Y865235D01*
X1582836D01*
X1608228D02*
X1598071D01*
Y850000D01*
X1608228D01*
X1598071Y857617D02*
X1603149D01*
X1623463Y862696D02*
X1620923Y865235D01*
X1615845D01*
X1613306Y862696D01*
Y860157D01*
X1615845Y857617D01*
X1620923D01*
X1623463Y855078D01*
Y852539D01*
X1620923Y850000D01*
X1615845D01*
X1613306Y852539D01*
X1653933Y862696D02*
X1651393Y865235D01*
X1646315D01*
X1643776Y862696D01*
Y852539D01*
X1646315Y850000D01*
X1651393D01*
X1653933Y852539D01*
X1666629Y865235D02*
X1661550D01*
X1659011Y862696D01*
Y852539D01*
X1661550Y850000D01*
X1666629D01*
X1669168Y852539D01*
Y862696D01*
X1666629Y865235D01*
X1674246D02*
Y850000D01*
X1684403D01*
X1697099Y865235D02*
X1692020D01*
X1689481Y862696D01*
Y852539D01*
X1692020Y850000D01*
X1697099D01*
X1699638Y852539D01*
Y862696D01*
X1697099Y865235D01*
X1704716D02*
Y852539D01*
X1707256Y850000D01*
X1712334D01*
X1714873Y852539D01*
Y865235D01*
X1719951Y850000D02*
Y865235D01*
X1727569D01*
X1730108Y862696D01*
Y857617D01*
X1727569Y855078D01*
X1719951D01*
X1725030D02*
X1730108Y850000D01*
X1750421Y857617D02*
X1760578D01*
X1780892Y865235D02*
Y850000D01*
X1788509D01*
X1791048Y852539D01*
Y855078D01*
X1788509Y857617D01*
X1780892D01*
X1788509D01*
X1791048Y860157D01*
Y862696D01*
X1788509Y865235D01*
X1780892D01*
X1796127D02*
Y850000D01*
X1806284D01*
X1811362Y865235D02*
Y852539D01*
X1813901Y850000D01*
X1818979D01*
X1821519Y852539D01*
Y865235D01*
X1836754D02*
X1826597D01*
Y850000D01*
X1836754D01*
X1826597Y857617D02*
X1831675D01*
X1082617Y800000D02*
Y815235D01*
X1075000Y807618D01*
X1085157D01*
X1090235Y800000D02*
Y802539D01*
X1092774D01*
Y800000D01*
X1090235D01*
X1128323Y812696D02*
X1125784Y815235D01*
X1120705D01*
X1118166Y812696D01*
Y802539D01*
X1120705Y800000D01*
X1125784D01*
X1128323Y802539D01*
X1141019Y815235D02*
X1135940D01*
X1133401Y812696D01*
Y802539D01*
X1135940Y800000D01*
X1141019D01*
X1143558Y802539D01*
Y812696D01*
X1141019Y815235D01*
X1148636Y800000D02*
Y815235D01*
X1153715Y810157D01*
X1158793Y815235D01*
Y800000D01*
X1163871D02*
Y815235D01*
X1171489D01*
X1174028Y812696D01*
Y807618D01*
X1171489Y805078D01*
X1163871D01*
X1186724Y815235D02*
X1181646D01*
X1179106Y812696D01*
Y802539D01*
X1181646Y800000D01*
X1186724D01*
X1189263Y802539D01*
Y812696D01*
X1186724Y815235D01*
X1194341Y800000D02*
Y815235D01*
X1204498Y800000D01*
Y815235D01*
X1219733D02*
X1209576D01*
Y800000D01*
X1219733D01*
X1209576Y807618D02*
X1214655D01*
X1224811Y800000D02*
Y815235D01*
X1234968Y800000D01*
Y815235D01*
X1240047D02*
X1250203D01*
X1245125D01*
Y800000D01*
X1270517Y815235D02*
X1275595D01*
X1273056D01*
Y800000D01*
X1270517D01*
X1275595D01*
X1283213Y815235D02*
Y800000D01*
X1290830D01*
X1293369Y802539D01*
Y812696D01*
X1290830Y815235D01*
X1283213D01*
X1308604D02*
X1298448D01*
Y800000D01*
X1308604D01*
X1298448Y807618D02*
X1303526D01*
X1313683Y800000D02*
Y815235D01*
X1323840Y800000D01*
Y815235D01*
X1328918D02*
X1339075D01*
X1333996D01*
Y800000D01*
X1344153Y810157D02*
X1346692D01*
Y807618D01*
X1344153D01*
Y810157D01*
Y802539D02*
X1346692D01*
Y800000D01*
X1344153D01*
Y802539D01*
X1382241Y812696D02*
X1379701Y815235D01*
X1374623D01*
X1372084Y812696D01*
Y802539D01*
X1374623Y800000D01*
X1379701D01*
X1382241Y802539D01*
X1394937Y815235D02*
X1389858D01*
X1387319Y812696D01*
Y802539D01*
X1389858Y800000D01*
X1394937D01*
X1397476Y802539D01*
Y812696D01*
X1394937Y815235D01*
X1402554D02*
Y800000D01*
X1412711D01*
X1425407Y815235D02*
X1420328D01*
X1417789Y812696D01*
Y802539D01*
X1420328Y800000D01*
X1425407D01*
X1427946Y802539D01*
Y812696D01*
X1425407Y815235D01*
X1433024D02*
Y802539D01*
X1435563Y800000D01*
X1440642D01*
X1443181Y802539D01*
Y815235D01*
X1448259Y800000D02*
Y815235D01*
X1455877D01*
X1458416Y812696D01*
Y807618D01*
X1455877Y805078D01*
X1448259D01*
X1453338D02*
X1458416Y800000D01*
X1478729Y815235D02*
X1488886D01*
X1483808D01*
Y800000D01*
X1501582Y815235D02*
X1496504D01*
X1493965Y812696D01*
Y802539D01*
X1496504Y800000D01*
X1501582D01*
X1504121Y802539D01*
Y812696D01*
X1501582Y815235D01*
X1524435D02*
Y800000D01*
X1532052D01*
X1534591Y802539D01*
Y805078D01*
X1532052Y807618D01*
X1524435D01*
X1532052D01*
X1534591Y810157D01*
Y812696D01*
X1532052Y815235D01*
X1524435D01*
X1549826D02*
X1539670D01*
Y800000D01*
X1549826D01*
X1539670Y807618D02*
X1544748D01*
X1570140Y815235D02*
Y800000D01*
X1575218Y805078D01*
X1580297Y800000D01*
Y815235D01*
X1585375D02*
Y800000D01*
Y807618D01*
X1595532D01*
Y815235D01*
Y800000D01*
X1600610Y815235D02*
X1605688D01*
X1603149D01*
Y800000D01*
X1600610D01*
X1605688D01*
X1613306Y815235D02*
X1623463D01*
X1618384D01*
Y800000D01*
X1638698Y815235D02*
X1628541D01*
Y800000D01*
X1638698D01*
X1628541Y807618D02*
X1633619D01*
M02*
