G04*
G04 #@! TF.GenerationSoftware,Altium Limited,Altium Designer,20.0.2 (26)*
G04*
G04 Layer_Color=8388736*
%FSLAX44Y44*%
%MOMM*%
G71*
G01*
G75*
%ADD11C,0.4000*%
%ADD13C,0.2540*%
%ADD86C,1.0160*%
%ADD87C,0.1524*%
D11*
X-287671Y-111339D02*
X-291003Y-108006D01*
X-297668D01*
X-301000Y-111339D01*
Y-114671D01*
X-297668Y-118003D01*
X-291003D01*
X-287671Y-121335D01*
Y-124668D01*
X-291003Y-128000D01*
X-297668D01*
X-301000Y-124668D01*
X-267677Y-111339D02*
X-271010Y-108006D01*
X-277674D01*
X-281006Y-111339D01*
Y-124668D01*
X-277674Y-128000D01*
X-271010D01*
X-267677Y-124668D01*
X-261013Y-128000D02*
Y-114671D01*
X-254348Y-108006D01*
X-247684Y-114671D01*
Y-128000D01*
Y-118003D01*
X-261013D01*
X-241019Y-108006D02*
Y-128000D01*
X-227690D01*
X-207697Y-108006D02*
X-221026D01*
Y-128000D01*
X-207697D01*
X-221026Y-118003D02*
X-214361D01*
X-181039Y-128000D02*
X-174374D01*
X-177706D01*
Y-108006D01*
X-181039Y-111339D01*
X-164377Y-114671D02*
X-161045D01*
Y-118003D01*
X-164377D01*
Y-114671D01*
Y-124668D02*
X-161045D01*
Y-128000D01*
X-164377D01*
Y-124668D01*
X-147716Y-128000D02*
X-141052D01*
X-144384D01*
Y-108006D01*
X-147716Y-111339D01*
X25000Y650000D02*
Y669994D01*
X31665Y663329D01*
X38329Y669994D01*
Y650000D01*
X54990D02*
X48326D01*
X44994Y653332D01*
Y659997D01*
X48326Y663329D01*
X54990D01*
X58323Y659997D01*
Y656665D01*
X44994D01*
X78316Y663329D02*
X68319D01*
X64987Y659997D01*
Y653332D01*
X68319Y650000D01*
X78316D01*
X84981Y669994D02*
Y650000D01*
Y659997D01*
X88313Y663329D01*
X94978D01*
X98310Y659997D01*
Y650000D01*
X108307Y663329D02*
X114971D01*
X118303Y659997D01*
Y650000D01*
X108307D01*
X104974Y653332D01*
X108307Y656665D01*
X118303D01*
X124968Y650000D02*
Y663329D01*
X134965D01*
X138297Y659997D01*
Y650000D01*
X144961D02*
X151626D01*
X148294D01*
Y663329D01*
X144961D01*
X174952D02*
X164955D01*
X161623Y659997D01*
Y653332D01*
X164955Y650000D01*
X174952D01*
X184948Y663329D02*
X191613D01*
X194945Y659997D01*
Y650000D01*
X184948D01*
X181616Y653332D01*
X184948Y656665D01*
X194945D01*
X201610Y650000D02*
X208274D01*
X204942D01*
Y669994D01*
X201610D01*
X238265D02*
Y650000D01*
X248261D01*
X251594Y653332D01*
Y666661D01*
X248261Y669994D01*
X238265D01*
X258258Y663329D02*
Y650000D01*
Y656665D01*
X261590Y659997D01*
X264923Y663329D01*
X268255D01*
X281584D02*
X288249D01*
X291581Y659997D01*
Y650000D01*
X281584D01*
X278252Y653332D01*
X281584Y656665D01*
X291581D01*
X298245Y663329D02*
Y653332D01*
X301577Y650000D01*
X304910Y653332D01*
X308242Y650000D01*
X311574Y653332D01*
Y663329D01*
X318239Y650000D02*
X324903D01*
X321571D01*
Y663329D01*
X318239D01*
X334900Y650000D02*
Y663329D01*
X344897D01*
X348229Y659997D01*
Y650000D01*
X361558Y643335D02*
X364891D01*
X368223Y646668D01*
Y663329D01*
X358226D01*
X354894Y659997D01*
Y653332D01*
X358226Y650000D01*
X368223D01*
X398213D02*
X404878D01*
X408210Y653332D01*
Y659997D01*
X404878Y663329D01*
X398213D01*
X394881Y659997D01*
Y653332D01*
X398213Y650000D01*
X418207D02*
Y666661D01*
Y659997D01*
X414874D01*
X421539D01*
X418207D01*
Y666661D01*
X421539Y669994D01*
X451529Y650000D02*
Y669994D01*
X458194Y663329D01*
X464858Y669994D01*
Y650000D01*
X471523Y663329D02*
Y653332D01*
X474855Y650000D01*
X484852D01*
Y646668D01*
X481520Y643335D01*
X478187D01*
X484852Y650000D02*
Y663329D01*
X504845Y650000D02*
X491516D01*
X504845Y663329D01*
Y666661D01*
X501513Y669994D01*
X494849D01*
X491516Y666661D01*
X511510D02*
X514842Y669994D01*
X521507D01*
X524839Y666661D01*
Y663329D01*
X521507Y659997D01*
X524839Y656665D01*
Y653332D01*
X521507Y650000D01*
X514842D01*
X511510Y653332D01*
Y656665D01*
X514842Y659997D01*
X511510Y663329D01*
Y666661D01*
X514842Y659997D02*
X521507D01*
X531503Y650000D02*
Y669994D01*
X541500D01*
X544832Y666661D01*
Y659997D01*
X541500Y656665D01*
X531503D01*
X551497Y650000D02*
X558162D01*
X554829D01*
Y663329D01*
X551497D01*
X568158Y650000D02*
Y663329D01*
X578155D01*
X581487Y659997D01*
Y650000D01*
X588152D02*
X598149D01*
X601481Y653332D01*
X598149Y656665D01*
X591484D01*
X588152Y659997D01*
X591484Y663329D01*
X601481D01*
X628139Y669994D02*
Y656665D01*
X634804Y650000D01*
X641468Y656665D01*
Y669994D01*
X648132Y650000D02*
X654797D01*
X651465D01*
Y669994D01*
X648132Y666661D01*
X664794Y669994D02*
X671458D01*
X668126D01*
Y650000D01*
X664794D01*
X671458D01*
X681455D02*
X688120D01*
X684787D01*
Y669994D01*
X681455Y666661D01*
D13*
X0Y-450000D02*
X15240Y-444920D01*
X0Y-450000D02*
X15240Y-455080D01*
X646760D02*
X662000Y-450000D01*
X646760Y-444920D02*
X662000Y-450000D01*
X0D02*
X280975D01*
X372896D02*
X662000D01*
X0Y-452540D02*
Y-7620D01*
X662000Y-452540D02*
Y455460D01*
X0Y-350000D02*
X15240Y-344920D01*
X0Y-350000D02*
X15240Y-355080D01*
X619760D02*
X635000Y-350000D01*
X619760Y-344920D02*
X635000Y-350000D01*
X0D02*
X267475D01*
X359396D02*
X635000D01*
X0Y-352540D02*
Y-7620D01*
X635000Y-352540D02*
Y494460D01*
X0Y-250000D02*
X15240Y-244920D01*
X0Y-250000D02*
X15240Y-255080D01*
X401320D02*
X416560Y-250000D01*
X401320Y-244920D02*
X416560Y-250000D01*
X0D02*
X159525D01*
X248907D02*
X416560D01*
X0Y-252540D02*
Y-7620D01*
X416560Y-252540D02*
Y494460D01*
X0Y-400000D02*
X15240Y-394920D01*
X0Y-400000D02*
X15240Y-405080D01*
X645160D02*
X660400Y-400000D01*
X645160Y-394920D02*
X660400Y-400000D01*
X0D02*
X280175D01*
X372096D02*
X660400D01*
X0Y-402540D02*
Y-7620D01*
X660400Y-402540D02*
Y35660D01*
X0Y-300000D02*
X15240Y-294920D01*
X0Y-300000D02*
X15240Y-305080D01*
X492760D02*
X508000Y-300000D01*
X492760Y-294920D02*
X508000Y-300000D01*
X0D02*
X203976D01*
X295896D02*
X508000D01*
X0Y-302540D02*
Y-7620D01*
X508000Y-302540D02*
Y11860D01*
X0Y-200000D02*
X15240Y-194920D01*
X0Y-200000D02*
X15240Y-205080D01*
X264160D02*
X279400Y-200000D01*
X264160Y-194920D02*
X279400Y-200000D01*
X0D02*
X89676D01*
X181596D02*
X279400D01*
X0Y-202540D02*
Y-7620D01*
X279400Y-202540D02*
Y11860D01*
X0Y-150000D02*
X15240Y-144920D01*
X0Y-150000D02*
X15240Y-155080D01*
X124460D02*
X139700Y-150000D01*
X124460Y-144920D02*
X139700Y-150000D01*
X0D02*
X21095D01*
X110477D02*
X139700D01*
X0Y-152540D02*
Y-7620D01*
X139700Y-152540D02*
Y-15140D01*
X21000Y-50000D02*
X36240Y-44920D01*
X21000Y-50000D02*
X36240Y-55080D01*
X-15240D02*
X0Y-50000D01*
X-15240Y-44920D02*
X0Y-50000D01*
X21000D02*
X46400D01*
X-25400D02*
X0D01*
Y-52540D02*
Y-7620D01*
X21000Y-52540D02*
Y-1540D01*
X25400Y-100000D02*
X40640Y-94920D01*
X25400Y-100000D02*
X40640Y-105080D01*
X-15240D02*
X0Y-100000D01*
X-15240Y-94920D02*
X0Y-100000D01*
X25400D02*
X50800D01*
X-25400D02*
X0D01*
Y-102540D02*
Y-7620D01*
X25400Y-102540D02*
Y460400D01*
X-55080Y40640D02*
X-50000Y25400D01*
X-44920Y40640D01*
X-50000Y0D02*
X-44920Y-15240D01*
X-55080D02*
X-50000Y0D01*
Y25400D02*
Y50800D01*
Y-25400D02*
Y0D01*
X-52540D02*
X-7620D01*
X-52540Y25400D02*
X99160D01*
X-80080Y91440D02*
X-75000Y76200D01*
X-69920Y91440D01*
X-75000Y0D02*
X-69920Y-15240D01*
X-80080D02*
X-75000Y0D01*
Y76200D02*
Y101600D01*
Y-25400D02*
Y0D01*
X-77540D02*
X-7620D01*
X-77540Y76200D02*
X660400D01*
X-105080Y15240D02*
X-100000Y0D01*
X-94920Y15240D01*
X-100000Y133000D02*
X-94920Y117760D01*
X-105080D02*
X-100000Y133000D01*
Y0D02*
Y17745D01*
Y107127D02*
Y133000D01*
X-102540Y0D02*
X-7620D01*
X-102540Y133000D02*
X-2540D01*
X-155080Y15240D02*
X-150000Y0D01*
X-144920Y15240D01*
X-150000Y234000D02*
X-144920Y218760D01*
X-155080D02*
X-150000Y234000D01*
Y0D02*
Y66976D01*
Y158897D02*
Y234000D01*
X-152540Y0D02*
X-2540D01*
X-152540Y234000D02*
X8905D01*
X-205080Y15240D02*
X-200000Y0D01*
X-194920Y15240D01*
X-200000Y342000D02*
X-194920Y326760D01*
X-205080D02*
X-200000Y342000D01*
Y0D02*
Y120976D01*
Y212896D02*
Y342000D01*
X-202540Y0D02*
X-2540D01*
X-202540Y342000D02*
X38760D01*
X-255080Y15240D02*
X-250000Y0D01*
X-244920Y15240D01*
X-250000Y386080D02*
X-244920Y370840D01*
X-255080D02*
X-250000Y386080D01*
Y0D02*
Y143016D01*
Y234937D02*
Y386080D01*
X-252540Y0D02*
X-7620D01*
X-252540Y386080D02*
X13360D01*
X-305080Y15240D02*
X-300000Y0D01*
X-294920Y15240D01*
X-300000Y472440D02*
X-294920Y457200D01*
X-305080D02*
X-300000Y472440D01*
Y0D02*
Y186196D01*
Y278116D02*
Y472440D01*
X-302540Y0D02*
X-7620D01*
X-302540Y472440D02*
X13360D01*
X-355080Y15240D02*
X-350000Y0D01*
X-344920Y15240D01*
X-350000Y508000D02*
X-344920Y492760D01*
X-355080D02*
X-350000Y508000D01*
Y0D02*
Y203976D01*
Y295896D02*
Y508000D01*
X-352540Y0D02*
X-7620D01*
X-352540Y508000D02*
X132860D01*
X0Y-500000D02*
X15240Y-494920D01*
X0Y-500000D02*
X15240Y-505080D01*
X670560D02*
X685800Y-500000D01*
X670560Y-494920D02*
X685800Y-500000D01*
X0D02*
X292875D01*
X384796D02*
X685800D01*
X0Y-502540D02*
Y-7620D01*
X685800Y-502540D02*
Y-7620D01*
X-405080Y15240D02*
X-400000Y0D01*
X-394920Y15240D01*
X-400000Y533400D02*
X-394920Y518160D01*
X-405080D02*
X-400000Y533400D01*
Y0D02*
Y216676D01*
Y308596D02*
Y533400D01*
X-402540Y0D02*
X-7620D01*
X-402540Y533400D02*
X-7620D01*
D86*
X676400Y355600D02*
G03*
X676400Y355600I-16000J0D01*
G01*
Y76200D02*
G03*
X676400Y76200I-16000J0D01*
G01*
X155700Y25400D02*
G03*
X155700Y25400I-16000J0D01*
G01*
X168400Y508000D02*
G03*
X168400Y508000I-16000J0D01*
G01*
X0Y0D02*
Y533400D01*
X685800D01*
Y0D02*
Y533400D01*
X0Y0D02*
X685800D01*
D87*
X295196Y-443907D02*
X290118Y-446446D01*
X285040Y-451524D01*
Y-456602D01*
X287579Y-459142D01*
X292657D01*
X295196Y-456602D01*
Y-454063D01*
X292657Y-451524D01*
X285040D01*
X310431Y-443907D02*
X305353Y-446446D01*
X300275Y-451524D01*
Y-456602D01*
X302814Y-459142D01*
X307892D01*
X310431Y-456602D01*
Y-454063D01*
X307892Y-451524D01*
X300275D01*
X315510Y-459142D02*
Y-456602D01*
X318049D01*
Y-459142D01*
X315510D01*
X338362D02*
X328206D01*
X338362Y-448985D01*
Y-446446D01*
X335823Y-443907D01*
X330745D01*
X328206Y-446446D01*
X343441Y-459142D02*
Y-448985D01*
X345980D01*
X348519Y-451524D01*
Y-459142D01*
Y-451524D01*
X351058Y-448985D01*
X353597Y-451524D01*
Y-459142D01*
X358676D02*
Y-448985D01*
X361215D01*
X363754Y-451524D01*
Y-459142D01*
Y-451524D01*
X366293Y-448985D01*
X368832Y-451524D01*
Y-459142D01*
X281696Y-343907D02*
X276618Y-346446D01*
X271539Y-351524D01*
Y-356602D01*
X274079Y-359142D01*
X279157D01*
X281696Y-356602D01*
Y-354063D01*
X279157Y-351524D01*
X271539D01*
X286775Y-346446D02*
X289314Y-343907D01*
X294392D01*
X296931Y-346446D01*
Y-348985D01*
X294392Y-351524D01*
X291853D01*
X294392D01*
X296931Y-354063D01*
Y-356602D01*
X294392Y-359142D01*
X289314D01*
X286775Y-356602D01*
X302010Y-359142D02*
Y-356602D01*
X304549D01*
Y-359142D01*
X302010D01*
X324862Y-343907D02*
X314706D01*
Y-351524D01*
X319784Y-348985D01*
X322323D01*
X324862Y-351524D01*
Y-356602D01*
X322323Y-359142D01*
X317245D01*
X314706Y-356602D01*
X329941Y-359142D02*
Y-348985D01*
X332480D01*
X335019Y-351524D01*
Y-359142D01*
Y-351524D01*
X337558Y-348985D01*
X340097Y-351524D01*
Y-359142D01*
X345176D02*
Y-348985D01*
X347715D01*
X350254Y-351524D01*
Y-359142D01*
Y-351524D01*
X352793Y-348985D01*
X355332Y-351524D01*
Y-359142D01*
X171207Y-259142D02*
Y-243906D01*
X163589Y-251524D01*
X173746D01*
X178824Y-259142D02*
X183903D01*
X181363D01*
Y-243906D01*
X178824Y-246446D01*
X191520Y-259142D02*
Y-256602D01*
X194059D01*
Y-259142D01*
X191520D01*
X204216Y-243906D02*
X214373D01*
Y-246446D01*
X204216Y-256602D01*
Y-259142D01*
X219451D02*
Y-248985D01*
X221990D01*
X224529Y-251524D01*
Y-259142D01*
Y-251524D01*
X227069Y-248985D01*
X229608Y-251524D01*
Y-259142D01*
X234686D02*
Y-248985D01*
X237225D01*
X239764Y-251524D01*
Y-259142D01*
Y-251524D01*
X242304Y-248985D01*
X244843Y-251524D01*
Y-259142D01*
X294396Y-393907D02*
X289318Y-396446D01*
X284240Y-401524D01*
Y-406602D01*
X286779Y-409142D01*
X291857D01*
X294396Y-406602D01*
Y-404063D01*
X291857Y-401524D01*
X284240D01*
X309631Y-393907D02*
X304553Y-396446D01*
X299475Y-401524D01*
Y-406602D01*
X302014Y-409142D01*
X307092D01*
X309631Y-406602D01*
Y-404063D01*
X307092Y-401524D01*
X299475D01*
X314710Y-409142D02*
Y-406602D01*
X317249D01*
Y-409142D01*
X314710D01*
X327406Y-396446D02*
X329945Y-393907D01*
X335023D01*
X337562Y-396446D01*
Y-406602D01*
X335023Y-409142D01*
X329945D01*
X327406Y-406602D01*
Y-396446D01*
X342641Y-409142D02*
Y-398985D01*
X345180D01*
X347719Y-401524D01*
Y-409142D01*
Y-401524D01*
X350258Y-398985D01*
X352797Y-401524D01*
Y-409142D01*
X357876D02*
Y-398985D01*
X360415D01*
X362954Y-401524D01*
Y-409142D01*
Y-401524D01*
X365493Y-398985D01*
X368032Y-401524D01*
Y-409142D01*
X218196Y-293906D02*
X208039D01*
Y-301524D01*
X213118Y-298985D01*
X215657D01*
X218196Y-301524D01*
Y-306602D01*
X215657Y-309142D01*
X210579D01*
X208039Y-306602D01*
X223275Y-296446D02*
X225814Y-293906D01*
X230892D01*
X233431Y-296446D01*
Y-306602D01*
X230892Y-309142D01*
X225814D01*
X223275Y-306602D01*
Y-296446D01*
X238510Y-309142D02*
Y-306602D01*
X241049D01*
Y-309142D01*
X238510D01*
X251206Y-296446D02*
X253745Y-293906D01*
X258823D01*
X261362Y-296446D01*
Y-298985D01*
X258823Y-301524D01*
X261362Y-304063D01*
Y-306602D01*
X258823Y-309142D01*
X253745D01*
X251206Y-306602D01*
Y-304063D01*
X253745Y-301524D01*
X251206Y-298985D01*
Y-296446D01*
X253745Y-301524D02*
X258823D01*
X266441Y-309142D02*
Y-298985D01*
X268980D01*
X271519Y-301524D01*
Y-309142D01*
Y-301524D01*
X274058Y-298985D01*
X276597Y-301524D01*
Y-309142D01*
X281676D02*
Y-298985D01*
X284215D01*
X286754Y-301524D01*
Y-309142D01*
Y-301524D01*
X289293Y-298985D01*
X291832Y-301524D01*
Y-309142D01*
X103896Y-209142D02*
X93740D01*
X103896Y-198985D01*
Y-196446D01*
X101357Y-193906D01*
X96279D01*
X93740Y-196446D01*
X108975Y-193906D02*
X119131D01*
Y-196446D01*
X108975Y-206602D01*
Y-209142D01*
X124210D02*
Y-206602D01*
X126749D01*
Y-209142D01*
X124210D01*
X136906Y-206602D02*
X139445Y-209142D01*
X144523D01*
X147062Y-206602D01*
Y-196446D01*
X144523Y-193906D01*
X139445D01*
X136906Y-196446D01*
Y-198985D01*
X139445Y-201524D01*
X147062D01*
X152141Y-209142D02*
Y-198985D01*
X154680D01*
X157219Y-201524D01*
Y-209142D01*
Y-201524D01*
X159758Y-198985D01*
X162297Y-201524D01*
Y-209142D01*
X167376D02*
Y-198985D01*
X169915D01*
X172454Y-201524D01*
Y-209142D01*
Y-201524D01*
X174993Y-198985D01*
X177532Y-201524D01*
Y-209142D01*
X25159Y-159142D02*
X30238D01*
X27698D01*
Y-143906D01*
X25159Y-146446D01*
X45473Y-159142D02*
Y-143906D01*
X37855Y-151524D01*
X48012D01*
X53090Y-159142D02*
Y-156602D01*
X55629D01*
Y-159142D01*
X53090D01*
X65786Y-146446D02*
X68325Y-143906D01*
X73404D01*
X75943Y-146446D01*
Y-156602D01*
X73404Y-159142D01*
X68325D01*
X65786Y-156602D01*
Y-146446D01*
X81021Y-159142D02*
Y-148985D01*
X83560D01*
X86099Y-151524D01*
Y-159142D01*
Y-151524D01*
X88639Y-148985D01*
X91178Y-151524D01*
Y-159142D01*
X96256D02*
Y-148985D01*
X98795D01*
X101334Y-151524D01*
Y-159142D01*
Y-151524D01*
X103874Y-148985D01*
X106413Y-151524D01*
Y-159142D01*
X59097Y-59142D02*
X48940D01*
X59097Y-48985D01*
Y-46446D01*
X56557Y-43906D01*
X51479D01*
X48940Y-46446D01*
X64175Y-59142D02*
Y-56602D01*
X66714D01*
Y-59142D01*
X64175D01*
X76871D02*
X81949D01*
X79410D01*
Y-43906D01*
X76871Y-46446D01*
X89567Y-59142D02*
Y-48985D01*
X92106D01*
X94645Y-51524D01*
Y-59142D01*
Y-51524D01*
X97184Y-48985D01*
X99724Y-51524D01*
Y-59142D01*
X104802D02*
Y-48985D01*
X107341D01*
X109880Y-51524D01*
Y-59142D01*
Y-51524D01*
X112420Y-48985D01*
X114959Y-51524D01*
Y-59142D01*
X63497Y-109142D02*
X53340D01*
X63497Y-98985D01*
Y-96446D01*
X60957Y-93906D01*
X55879D01*
X53340Y-96446D01*
X68575Y-109142D02*
Y-106602D01*
X71114D01*
Y-109142D01*
X68575D01*
X91428Y-93906D02*
X81271D01*
Y-101524D01*
X86349Y-98985D01*
X88889D01*
X91428Y-101524D01*
Y-106602D01*
X88889Y-109142D01*
X83810D01*
X81271Y-106602D01*
X96506Y-109142D02*
Y-98985D01*
X99045D01*
X101584Y-101524D01*
Y-109142D01*
Y-101524D01*
X104124Y-98985D01*
X106663Y-101524D01*
Y-109142D01*
X111741D02*
Y-98985D01*
X114280D01*
X116819Y-101524D01*
Y-109142D01*
Y-101524D01*
X119359Y-98985D01*
X121898Y-101524D01*
Y-109142D01*
X-40858Y-89389D02*
Y-99546D01*
X-51015Y-89389D01*
X-53554D01*
X-56094Y-91928D01*
Y-97007D01*
X-53554Y-99546D01*
X-40858Y-84311D02*
X-43398D01*
Y-81772D01*
X-40858D01*
Y-84311D01*
X-56094Y-61458D02*
Y-71615D01*
X-48476D01*
X-51015Y-66536D01*
Y-63997D01*
X-48476Y-61458D01*
X-43398D01*
X-40858Y-63997D01*
Y-69076D01*
X-43398Y-71615D01*
X-40858Y-56380D02*
X-51015D01*
Y-53841D01*
X-48476Y-51301D01*
X-40858D01*
X-48476D01*
X-51015Y-48762D01*
X-48476Y-46223D01*
X-40858D01*
Y-41145D02*
X-51015D01*
Y-38605D01*
X-48476Y-36066D01*
X-40858D01*
X-48476D01*
X-51015Y-33527D01*
X-48476Y-30988D01*
X-40858D01*
X-81094Y-99546D02*
Y-89389D01*
X-78554D01*
X-68398Y-99546D01*
X-65858D01*
Y-84311D02*
X-68398D01*
Y-81772D01*
X-65858D01*
Y-84311D01*
X-81094Y-61458D02*
X-78554Y-66536D01*
X-73476Y-71615D01*
X-68398D01*
X-65858Y-69076D01*
Y-63997D01*
X-68398Y-61458D01*
X-70937D01*
X-73476Y-63997D01*
Y-71615D01*
X-65858Y-56380D02*
X-76015D01*
Y-53841D01*
X-73476Y-51301D01*
X-65858D01*
X-73476D01*
X-76015Y-48762D01*
X-73476Y-46223D01*
X-65858D01*
Y-41145D02*
X-76015D01*
Y-38605D01*
X-73476Y-36066D01*
X-65858D01*
X-73476D01*
X-76015Y-33527D01*
X-73476Y-30988D01*
X-65858D01*
X-90858Y21809D02*
Y26888D01*
Y24348D01*
X-106094D01*
X-103554Y21809D01*
Y34505D02*
X-106094Y37044D01*
Y42123D01*
X-103554Y44662D01*
X-101015D01*
X-98476Y42123D01*
Y39583D01*
Y42123D01*
X-95937Y44662D01*
X-93398D01*
X-90858Y42123D01*
Y37044D01*
X-93398Y34505D01*
X-90858Y49740D02*
X-93398D01*
Y52279D01*
X-90858D01*
Y49740D01*
X-103554Y62436D02*
X-106094Y64975D01*
Y70054D01*
X-103554Y72593D01*
X-101015D01*
X-98476Y70054D01*
Y67514D01*
Y70054D01*
X-95937Y72593D01*
X-93398D01*
X-90858Y70054D01*
Y64975D01*
X-93398Y62436D01*
X-90858Y77671D02*
X-101015D01*
Y80210D01*
X-98476Y82749D01*
X-90858D01*
X-98476D01*
X-101015Y85289D01*
X-98476Y87828D01*
X-90858D01*
Y92906D02*
X-101015D01*
Y95445D01*
X-98476Y97985D01*
X-90858D01*
X-98476D01*
X-101015Y100524D01*
X-98476Y103063D01*
X-90858D01*
X-140858Y81196D02*
Y71040D01*
X-151015Y81196D01*
X-153554D01*
X-156094Y78657D01*
Y73579D01*
X-153554Y71040D01*
Y86275D02*
X-156094Y88814D01*
Y93892D01*
X-153554Y96431D01*
X-151015D01*
X-148476Y93892D01*
Y91353D01*
Y93892D01*
X-145937Y96431D01*
X-143398D01*
X-140858Y93892D01*
Y88814D01*
X-143398Y86275D01*
X-140858Y101510D02*
X-143398D01*
Y104049D01*
X-140858D01*
Y101510D01*
Y121823D02*
X-156094D01*
X-148476Y114206D01*
Y124362D01*
X-140858Y129441D02*
X-151015D01*
Y131980D01*
X-148476Y134519D01*
X-140858D01*
X-148476D01*
X-151015Y137058D01*
X-148476Y139597D01*
X-140858D01*
Y144676D02*
X-151015D01*
Y147215D01*
X-148476Y149754D01*
X-140858D01*
X-148476D01*
X-151015Y152293D01*
X-148476Y154832D01*
X-140858D01*
X-203554Y125040D02*
X-206094Y127579D01*
Y132657D01*
X-203554Y135196D01*
X-201015D01*
X-198476Y132657D01*
Y130118D01*
Y132657D01*
X-195937Y135196D01*
X-193398D01*
X-190858Y132657D01*
Y127579D01*
X-193398Y125040D01*
X-190858Y147892D02*
X-206094D01*
X-198476Y140275D01*
Y150431D01*
X-190858Y155510D02*
X-193398D01*
Y158049D01*
X-190858D01*
Y155510D01*
Y178362D02*
Y168206D01*
X-201015Y178362D01*
X-203554D01*
X-206094Y175823D01*
Y170745D01*
X-203554Y168206D01*
X-190858Y183441D02*
X-201015D01*
Y185980D01*
X-198476Y188519D01*
X-190858D01*
X-198476D01*
X-201015Y191058D01*
X-198476Y193597D01*
X-190858D01*
Y198676D02*
X-201015D01*
Y201215D01*
X-198476Y203754D01*
X-190858D01*
X-198476D01*
X-201015Y206293D01*
X-198476Y208832D01*
X-190858D01*
X-253554Y147079D02*
X-256094Y149619D01*
Y154697D01*
X-253554Y157236D01*
X-251015D01*
X-248476Y154697D01*
Y152158D01*
Y154697D01*
X-245937Y157236D01*
X-243398D01*
X-240858Y154697D01*
Y149619D01*
X-243398Y147079D01*
X-253554Y162315D02*
X-256094Y164854D01*
Y169932D01*
X-253554Y172471D01*
X-251015D01*
X-248476Y169932D01*
X-245937Y172471D01*
X-243398D01*
X-240858Y169932D01*
Y164854D01*
X-243398Y162315D01*
X-245937D01*
X-248476Y164854D01*
X-251015Y162315D01*
X-253554D01*
X-248476Y164854D02*
Y169932D01*
X-240858Y177550D02*
X-243398D01*
Y180089D01*
X-240858D01*
Y177550D01*
X-256094Y200402D02*
X-253554Y195324D01*
X-248476Y190246D01*
X-243398D01*
X-240858Y192785D01*
Y197863D01*
X-243398Y200402D01*
X-245937D01*
X-248476Y197863D01*
Y190246D01*
X-240858Y205481D02*
X-251015D01*
Y208020D01*
X-248476Y210559D01*
X-240858D01*
X-248476D01*
X-251015Y213098D01*
X-248476Y215637D01*
X-240858D01*
Y220716D02*
X-251015D01*
Y223255D01*
X-248476Y225794D01*
X-240858D01*
X-248476D01*
X-251015Y228333D01*
X-248476Y230872D01*
X-240858D01*
X-290858Y197877D02*
X-306094D01*
X-298476Y190259D01*
Y200416D01*
X-306094Y205495D02*
Y215651D01*
X-303554D01*
X-293398Y205495D01*
X-290858D01*
Y220730D02*
X-293398D01*
Y223269D01*
X-290858D01*
Y220730D01*
Y243582D02*
Y233426D01*
X-301015Y243582D01*
X-303554D01*
X-306094Y241043D01*
Y235965D01*
X-303554Y233426D01*
X-290858Y248661D02*
X-301015D01*
Y251200D01*
X-298476Y253739D01*
X-290858D01*
X-298476D01*
X-301015Y256278D01*
X-298476Y258817D01*
X-290858D01*
Y263896D02*
X-301015D01*
Y266435D01*
X-298476Y268974D01*
X-290858D01*
X-298476D01*
X-301015Y271513D01*
X-298476Y274052D01*
X-290858D01*
X-356093Y218196D02*
Y208039D01*
X-348476D01*
X-351015Y213118D01*
Y215657D01*
X-348476Y218196D01*
X-343398D01*
X-340858Y215657D01*
Y210579D01*
X-343398Y208039D01*
X-353554Y223275D02*
X-356093Y225814D01*
Y230892D01*
X-353554Y233431D01*
X-343398D01*
X-340858Y230892D01*
Y225814D01*
X-343398Y223275D01*
X-353554D01*
X-340858Y238510D02*
X-343398D01*
Y241049D01*
X-340858D01*
Y238510D01*
X-353554Y251206D02*
X-356093Y253745D01*
Y258823D01*
X-353554Y261362D01*
X-351015D01*
X-348476Y258823D01*
X-345937Y261362D01*
X-343398D01*
X-340858Y258823D01*
Y253745D01*
X-343398Y251206D01*
X-345937D01*
X-348476Y253745D01*
X-351015Y251206D01*
X-353554D01*
X-348476Y253745D02*
Y258823D01*
X-340858Y266441D02*
X-351015D01*
Y268980D01*
X-348476Y271519D01*
X-340858D01*
X-348476D01*
X-351015Y274058D01*
X-348476Y276597D01*
X-340858D01*
Y281676D02*
X-351015D01*
Y284215D01*
X-348476Y286754D01*
X-340858D01*
X-348476D01*
X-351015Y289293D01*
X-348476Y291832D01*
X-340858D01*
X307096Y-493907D02*
X302018Y-496446D01*
X296940Y-501524D01*
Y-506602D01*
X299479Y-509142D01*
X304557D01*
X307096Y-506602D01*
Y-504063D01*
X304557Y-501524D01*
X296940D01*
X312175Y-496446D02*
X314714Y-493907D01*
X319792D01*
X322331Y-496446D01*
Y-498985D01*
X319792Y-501524D01*
X322331Y-504063D01*
Y-506602D01*
X319792Y-509142D01*
X314714D01*
X312175Y-506602D01*
Y-504063D01*
X314714Y-501524D01*
X312175Y-498985D01*
Y-496446D01*
X314714Y-501524D02*
X319792D01*
X327410Y-509142D02*
Y-506602D01*
X329949D01*
Y-509142D01*
X327410D01*
X350262Y-493907D02*
X345184Y-496446D01*
X340106Y-501524D01*
Y-506602D01*
X342645Y-509142D01*
X347723D01*
X350262Y-506602D01*
Y-504063D01*
X347723Y-501524D01*
X340106D01*
X355341Y-509142D02*
Y-498985D01*
X357880D01*
X360419Y-501524D01*
Y-509142D01*
Y-501524D01*
X362958Y-498985D01*
X365497Y-501524D01*
Y-509142D01*
X370576D02*
Y-498985D01*
X373115D01*
X375654Y-501524D01*
Y-509142D01*
Y-501524D01*
X378193Y-498985D01*
X380732Y-501524D01*
Y-509142D01*
X-406093Y230896D02*
Y220739D01*
X-398476D01*
X-401015Y225818D01*
Y228357D01*
X-398476Y230896D01*
X-393398D01*
X-390858Y228357D01*
Y223279D01*
X-393398Y220739D01*
X-403554Y235975D02*
X-406093Y238514D01*
Y243592D01*
X-403554Y246131D01*
X-401015D01*
X-398476Y243592D01*
Y241053D01*
Y243592D01*
X-395937Y246131D01*
X-393398D01*
X-390858Y243592D01*
Y238514D01*
X-393398Y235975D01*
X-390858Y251210D02*
X-393398D01*
Y253749D01*
X-390858D01*
Y251210D01*
X-403554Y263906D02*
X-406093Y266445D01*
Y271523D01*
X-403554Y274062D01*
X-401015D01*
X-398476Y271523D01*
Y268984D01*
Y271523D01*
X-395937Y274062D01*
X-393398D01*
X-390858Y271523D01*
Y266445D01*
X-393398Y263906D01*
X-390858Y279141D02*
X-401015D01*
Y281680D01*
X-398476Y284219D01*
X-390858D01*
X-398476D01*
X-401015Y286758D01*
X-398476Y289297D01*
X-390858D01*
Y294376D02*
X-401015D01*
Y296915D01*
X-398476Y299454D01*
X-390858D01*
X-398476D01*
X-401015Y301993D01*
X-398476Y304532D01*
X-390858D01*
M02*
