G04*
G04 #@! TF.GenerationSoftware,Altium Limited,Altium Designer,20.0.2 (26)*
G04*
G04 Layer_Physical_Order=2*
G04 Layer_Color=16711680*
%FSLAX44Y44*%
%MOMM*%
G71*
G01*
G75*
%ADD12C,0.3000*%
%ADD17R,1.9000X1.9000*%
%ADD60C,1.9000*%
%ADD61R,1.9000X1.9000*%
%ADD70C,1.0000*%
%ADD71C,0.6000*%
%ADD73C,0.5000*%
%ADD74O,1.6000X2.0000*%
%ADD75R,1.6000X2.0000*%
G04:AMPARAMS|DCode=76|XSize=2mm|YSize=1.2mm|CornerRadius=0.36mm|HoleSize=0mm|Usage=FLASHONLY|Rotation=0.000|XOffset=0mm|YOffset=0mm|HoleType=Round|Shape=RoundedRectangle|*
%AMROUNDEDRECTD76*
21,1,2.0000,0.4800,0,0,0.0*
21,1,1.2800,1.2000,0,0,0.0*
1,1,0.7200,0.6400,-0.2400*
1,1,0.7200,-0.6400,-0.2400*
1,1,0.7200,-0.6400,0.2400*
1,1,0.7200,0.6400,0.2400*
%
%ADD76ROUNDEDRECTD76*%
%ADD77C,1.7000*%
%ADD78R,1.7000X1.7000*%
%ADD79R,2.0000X1.6000*%
%ADD80O,2.0000X1.6000*%
%ADD81C,7.4000*%
%ADD82C,4.0000*%
%ADD83C,3.2000*%
%ADD84C,0.6000*%
G36*
X685508Y472179D02*
X675000D01*
Y480000D01*
X649000D01*
Y472179D01*
X600309D01*
X597244Y475244D01*
X595756Y476239D01*
X594000Y476588D01*
X276099D01*
X254848Y497839D01*
Y514763D01*
X254499Y516519D01*
X253508Y518002D01*
Y532179D01*
X685508D01*
Y472179D01*
D02*
G37*
G36*
X111000Y469148D02*
X109827Y468662D01*
X102804Y475684D01*
X101316Y476679D01*
X99560Y477028D01*
X86747D01*
X86245Y478240D01*
X84402Y480642D01*
X82000Y482485D01*
X79202Y483644D01*
X76200Y484039D01*
X73198Y483644D01*
X70400Y482485D01*
X67998Y480642D01*
X66155Y478240D01*
X64996Y475442D01*
X64601Y472440D01*
X64996Y469438D01*
X66155Y466640D01*
X67998Y464238D01*
X70400Y462395D01*
X73198Y461236D01*
X76200Y460841D01*
X79202Y461236D01*
X82000Y462395D01*
X84402Y464238D01*
X86245Y466640D01*
X86747Y467852D01*
X97660D01*
X111000Y454511D01*
Y399000D01*
X129000Y381000D01*
Y380000D01*
X133674D01*
X133837Y379837D01*
X134830Y379174D01*
X135807Y378979D01*
X136100Y378392D01*
X136226Y377700D01*
X136155Y377645D01*
X134391Y375347D01*
X133283Y372672D01*
X132905Y369800D01*
X133283Y366928D01*
X134391Y364253D01*
X136155Y361955D01*
X138453Y360191D01*
X141128Y359083D01*
X144000Y358705D01*
X148000D01*
X150872Y359083D01*
X153547Y360191D01*
X155845Y361955D01*
X157608Y364253D01*
X158717Y366928D01*
X159095Y369800D01*
X158717Y372672D01*
X157608Y375347D01*
X155845Y377645D01*
X155724Y377739D01*
X156132Y378941D01*
X169000Y378941D01*
X170170Y379174D01*
X171163Y379837D01*
X171163Y379837D01*
X181163Y389837D01*
X181826Y390829D01*
X182059Y392000D01*
X182059Y392000D01*
X182059Y421409D01*
X182000Y421704D01*
X182000Y422296D01*
X182059Y422591D01*
X182059Y440043D01*
X182957Y440941D01*
X195408Y440941D01*
X195703Y441000D01*
X195996D01*
X195996Y441000D01*
X196297Y441000D01*
X196592Y440941D01*
X199941Y440941D01*
X199941Y420000D01*
X200000Y419704D01*
Y408000D01*
X207409D01*
X208000Y407882D01*
X208591Y408000D01*
X587931Y408000D01*
Y344363D01*
X571794Y328226D01*
X570512Y326555D01*
X569706Y324609D01*
X569431Y322521D01*
Y237500D01*
X569706Y235412D01*
X570512Y233465D01*
X571794Y231794D01*
X574000Y229589D01*
Y215262D01*
X572944Y214557D01*
X572722Y214649D01*
X569850Y215027D01*
X566978Y214649D01*
X564303Y213540D01*
X562005Y211777D01*
X560242Y209480D01*
X559133Y206804D01*
X558755Y203932D01*
Y199932D01*
X559133Y197060D01*
X560242Y194384D01*
X562005Y192087D01*
X564303Y190324D01*
X566978Y189215D01*
X569850Y188837D01*
X572722Y189215D01*
X572944Y189307D01*
X574000Y188602D01*
Y188000D01*
X588000Y174000D01*
X613000D01*
Y188932D01*
X631650D01*
Y191000D01*
X643912D01*
Y173208D01*
X626935Y156231D01*
X614643D01*
X612887Y155882D01*
X611399Y154887D01*
X610511Y154000D01*
X608000D01*
X592460Y138460D01*
X592378Y138449D01*
X589703Y137340D01*
X587405Y135577D01*
X585642Y133279D01*
X584533Y130604D01*
X584155Y127732D01*
Y123732D01*
X584533Y120860D01*
X585000Y119733D01*
Y111000D01*
X624000D01*
X639000Y126000D01*
Y136000D01*
X680000D01*
X681730Y136000D01*
X683000Y135348D01*
Y3000D01*
X624059D01*
X624059Y17751D01*
X625329Y18004D01*
X625392Y17852D01*
X627155Y15555D01*
X629453Y13792D01*
X632128Y12683D01*
X635000Y12305D01*
X637872Y12683D01*
X640547Y13792D01*
X642845Y15555D01*
X644609Y17852D01*
X645717Y20528D01*
X646095Y23400D01*
Y27400D01*
X645717Y30272D01*
X644609Y32947D01*
X642845Y35245D01*
X640547Y37009D01*
X637872Y38117D01*
X635000Y38495D01*
X632128Y38117D01*
X629453Y37009D01*
X627155Y35245D01*
X625392Y32947D01*
X625329Y32796D01*
X624059Y33048D01*
X624059Y67000D01*
X624059Y67000D01*
X623826Y68170D01*
X623163Y69163D01*
X623000Y69325D01*
Y70000D01*
X616000Y77000D01*
X614296D01*
X614000Y77059D01*
X614000Y77059D01*
X544000D01*
X544000Y77059D01*
X542830Y76826D01*
X541837Y76163D01*
X525733Y60059D01*
X411267D01*
X409800Y61525D01*
X409550Y61693D01*
X409337Y61906D01*
X407879Y62880D01*
X406906Y64337D01*
X406693Y64550D01*
X406525Y64800D01*
X398163Y73163D01*
X397170Y73826D01*
X396000Y74059D01*
X396000Y74059D01*
X358316Y74059D01*
X358021Y74000D01*
X357720Y74000D01*
X357441Y73885D01*
X357146Y73826D01*
X356895Y73658D01*
X356617Y73543D01*
X356147Y73229D01*
X355000Y73001D01*
X353852Y73229D01*
X353383Y73543D01*
X353105Y73658D01*
X352854Y73826D01*
X352559Y73885D01*
X352280Y74000D01*
X351979D01*
X351683Y74059D01*
X308317Y74059D01*
X308021Y74000D01*
X307720D01*
X307442Y73885D01*
X307146Y73826D01*
X306896Y73659D01*
X306617Y73543D01*
X306148Y73229D01*
X305000Y73001D01*
X303852Y73229D01*
X303383Y73543D01*
X303104Y73659D01*
X302854Y73826D01*
X302558Y73885D01*
X302358Y73968D01*
X243163Y133163D01*
X242171Y133826D01*
X241000Y134059D01*
X241000Y134059D01*
X167591Y134059D01*
X167295Y134000D01*
X166705D01*
X166409Y134059D01*
X164059D01*
Y136409D01*
X164000Y136705D01*
X164000Y137295D01*
X164059Y137591D01*
Y143000D01*
X163826Y144171D01*
X163163Y145163D01*
X162171Y145826D01*
X162000Y145860D01*
Y147000D01*
X96000D01*
Y176000D01*
X95059D01*
X94826Y177171D01*
X94163Y178163D01*
X93170Y178826D01*
X92000Y179059D01*
X79591Y179059D01*
X79295Y179000D01*
X78705Y179000D01*
X78409Y179059D01*
X76267D01*
X76059Y179267D01*
Y181409D01*
X76000Y181705D01*
Y182295D01*
X76059Y182591D01*
Y223409D01*
X76000Y223705D01*
Y224295D01*
X76059Y224591D01*
Y231000D01*
X75826Y232171D01*
X75163Y233163D01*
X75000Y233272D01*
Y235000D01*
X55772D01*
X55772Y301287D01*
X55770Y301298D01*
X55772Y301308D01*
X55751Y304311D01*
X55732Y304405D01*
X55744Y304500D01*
X55612Y304987D01*
X55510Y305480D01*
X56279Y306422D01*
X56600Y306555D01*
X59002Y308398D01*
X60845Y310800D01*
X62004Y313598D01*
X62399Y316600D01*
X62004Y319602D01*
X60845Y322400D01*
X59002Y324802D01*
X56600Y326645D01*
X56125Y326842D01*
X55356Y327788D01*
X55449Y328272D01*
X55575Y328749D01*
X55560Y328855D01*
X55581Y328960D01*
X55576Y329599D01*
X56471Y330500D01*
X62300D01*
Y353500D01*
X56480D01*
X55439Y354383D01*
X55405Y354422D01*
X55271Y373728D01*
X55252Y373822D01*
X55264Y373917D01*
X55132Y374403D01*
X55030Y374897D01*
X55908Y375748D01*
X56600Y376035D01*
X59002Y377878D01*
X60845Y380280D01*
X62004Y383078D01*
X62399Y386080D01*
X62004Y389082D01*
X60845Y391880D01*
X59002Y394282D01*
X56600Y396125D01*
X55000Y396788D01*
Y400772D01*
X56600Y401435D01*
X59002Y403278D01*
X60845Y405680D01*
X62004Y408478D01*
X62399Y411480D01*
X62004Y414482D01*
X60845Y417280D01*
X59002Y419682D01*
X56600Y421525D01*
X55000Y422188D01*
Y424000D01*
X43059Y435941D01*
Y459000D01*
X55000D01*
Y461732D01*
X56600Y462395D01*
X59002Y464238D01*
X60845Y466640D01*
X62004Y469438D01*
X62399Y472440D01*
X62004Y475442D01*
X60845Y478240D01*
X59002Y480642D01*
X56600Y482485D01*
X55000Y483148D01*
Y487132D01*
X56600Y487795D01*
X59002Y489638D01*
X60845Y492040D01*
X62004Y494838D01*
X62399Y497840D01*
X62004Y500842D01*
X60845Y503640D01*
X59002Y506042D01*
X56600Y507885D01*
X55000Y508548D01*
Y512000D01*
X40296D01*
X40000Y512059D01*
X3000D01*
Y532000D01*
X111000D01*
Y469148D01*
D02*
G37*
G36*
X242000Y437000D02*
X248866Y437000D01*
X249223Y436761D01*
X250979Y436412D01*
X300000D01*
Y420000D01*
X208593Y420000D01*
X208000Y420117D01*
X207407Y420000D01*
X203000Y420000D01*
X203000Y444000D01*
X196592Y444000D01*
X196000Y444118D01*
X195408Y444000D01*
X179000Y444000D01*
X179000Y422591D01*
X178883Y422000D01*
X179000Y421409D01*
X179000Y392000D01*
X169000Y382000D01*
X136000Y382000D01*
X117000Y401000D01*
X117000Y441000D01*
X133000Y441000D01*
Y435000D01*
X159000D01*
Y449000D01*
X165412Y455412D01*
X223588D01*
X242000Y437000D01*
D02*
G37*
G36*
X40000Y501817D02*
X39596Y500842D01*
X39201Y497840D01*
X39596Y494838D01*
X40000Y493863D01*
Y476417D01*
X39596Y475442D01*
X39201Y472440D01*
X39596Y469438D01*
X40000Y468463D01*
Y430800D01*
X47051Y423749D01*
X46753Y422251D01*
X45000Y421525D01*
X42598Y419682D01*
X40755Y417280D01*
X39596Y414482D01*
X39201Y411480D01*
X39596Y408478D01*
X40755Y405680D01*
X42598Y403278D01*
X45000Y401435D01*
X47798Y400276D01*
X50800Y399881D01*
X51515Y398814D01*
X51515Y398750D01*
X50800Y397679D01*
X47798Y397284D01*
X45000Y396125D01*
X42598Y394282D01*
X40755Y391880D01*
X39596Y389082D01*
X39201Y386080D01*
X39596Y383078D01*
X40755Y380280D01*
X42598Y377878D01*
X45000Y376035D01*
X47798Y374876D01*
X50800Y374481D01*
X51255Y374541D01*
X52212Y373707D01*
X52346Y354401D01*
X51451Y353500D01*
X39300D01*
Y330500D01*
X52511D01*
X52522Y328939D01*
X51570Y328098D01*
X50800Y328199D01*
X47798Y327804D01*
X45000Y326645D01*
X42598Y324802D01*
X40755Y322400D01*
X39596Y319602D01*
X39201Y316600D01*
X39596Y313598D01*
X40755Y310800D01*
X42598Y308398D01*
X45000Y306555D01*
X47798Y305396D01*
X50800Y305001D01*
X51735Y305124D01*
X52692Y304290D01*
X52713Y301287D01*
X52713Y232977D01*
X52174Y232171D01*
X51941Y231000D01*
Y212000D01*
X51941Y212000D01*
X52174Y210830D01*
X52713Y210023D01*
Y209287D01*
X55941Y206059D01*
Y171000D01*
X56000Y170705D01*
Y170000D01*
X56181Y169819D01*
X56837Y168837D01*
X56837Y168837D01*
X77941Y147733D01*
Y104898D01*
X77941Y104898D01*
X78000Y104602D01*
Y101000D01*
X81602D01*
X81898Y100941D01*
X81898Y100941D01*
X87704Y100941D01*
X88000Y100883D01*
X88296Y100941D01*
X92000Y100941D01*
X92295Y101000D01*
X95000D01*
Y103704D01*
X95059Y104000D01*
X95059Y143000D01*
X161000Y143000D01*
Y137591D01*
X160882Y137000D01*
X161000Y136409D01*
Y131000D01*
X166409D01*
X167000Y130883D01*
X167591Y131000D01*
X241000Y131000D01*
X301000Y71000D01*
X301683D01*
X302659Y70348D01*
X305000Y69882D01*
X307341Y70348D01*
X308317Y71000D01*
X351683Y71000D01*
X352659Y70348D01*
X355000Y69882D01*
X357341Y70348D01*
X358316Y71000D01*
X396000Y71000D01*
X404362Y62637D01*
X405674Y60674D01*
X407638Y59362D01*
X410000Y57000D01*
X527000D01*
X544000Y74000D01*
X614000D01*
X621000Y67000D01*
X621000Y31941D01*
X619730Y31688D01*
X619208Y32947D01*
X617445Y35245D01*
X615148Y37009D01*
X612472Y38117D01*
X609600Y38495D01*
X606728Y38117D01*
X604053Y37009D01*
X601755Y35245D01*
X599991Y32947D01*
X598883Y30272D01*
X598505Y27400D01*
Y23400D01*
X598883Y20528D01*
X599991Y17852D01*
X601755Y15555D01*
X604053Y13792D01*
X606728Y12683D01*
X609600Y12305D01*
X612472Y12683D01*
X615148Y13792D01*
X617445Y15555D01*
X619208Y17852D01*
X619730Y19111D01*
X621000Y18859D01*
X621000Y3000D01*
X395501D01*
Y17651D01*
X396771Y17903D01*
X396791Y17852D01*
X398555Y15555D01*
X400853Y13792D01*
X403528Y12683D01*
X406400Y12305D01*
X409272Y12683D01*
X411948Y13792D01*
X414245Y15555D01*
X416008Y17852D01*
X417117Y20528D01*
X417495Y23400D01*
Y27400D01*
X417117Y30272D01*
X416008Y32947D01*
X414245Y35245D01*
X411948Y37009D01*
X409272Y38117D01*
X406400Y38495D01*
X403528Y38117D01*
X400853Y37009D01*
X398555Y35245D01*
X396791Y32947D01*
X396771Y32897D01*
X395501Y33149D01*
Y42000D01*
X367326Y42000D01*
X358163Y51163D01*
X357170Y51826D01*
X356000Y52059D01*
X356000Y52059D01*
X317591D01*
X317295Y52000D01*
X316705D01*
X316409Y52059D01*
X284591D01*
X284296Y52000D01*
X283704D01*
X283409Y52059D01*
X281941D01*
X256500Y77500D01*
Y97500D01*
X256000D01*
Y98000D01*
X235000D01*
X234319Y98681D01*
X233663Y99663D01*
X233663Y99663D01*
X220163Y113163D01*
X219181Y113819D01*
X219000Y114000D01*
X218296D01*
X218000Y114059D01*
X218000Y114059D01*
X166000D01*
X165704Y114000D01*
X165000D01*
X164819Y113819D01*
X163837Y113163D01*
X154837Y104163D01*
X154181Y103181D01*
X154000Y103000D01*
Y102296D01*
X153941Y102000D01*
X153941Y102000D01*
Y78000D01*
X154000Y77704D01*
Y76059D01*
X128000Y76059D01*
Y101000D01*
X124296D01*
X124000Y101059D01*
X108898Y101059D01*
X108898Y101059D01*
X108603Y101000D01*
X104000D01*
Y94000D01*
X68059Y58059D01*
X3000Y58059D01*
Y116793D01*
X4196Y117221D01*
X4658Y116658D01*
X8160Y113784D01*
X12156Y111648D01*
X16491Y110333D01*
X21000Y109889D01*
X25509Y110333D01*
X29844Y111648D01*
X33840Y113784D01*
X37342Y116658D01*
X40216Y120160D01*
X42352Y124156D01*
X43667Y128491D01*
X44111Y133000D01*
X43667Y137509D01*
X42352Y141844D01*
X40216Y145840D01*
X37342Y149342D01*
X33840Y152216D01*
X29844Y154352D01*
X25509Y155667D01*
X21000Y156111D01*
X16491Y155667D01*
X12156Y154352D01*
X8160Y152216D01*
X4658Y149342D01*
X4196Y148779D01*
X3000Y149207D01*
Y509000D01*
X40000D01*
Y501817D01*
D02*
G37*
G36*
X594363Y236148D02*
X598756Y231756D01*
X599212Y231451D01*
X610000Y221000D01*
Y214932D01*
X609650D01*
Y188932D01*
X609941D01*
Y181941D01*
X607000Y179000D01*
X588000Y179000D01*
X578000Y189000D01*
Y192484D01*
X579459Y194384D01*
X580567Y197060D01*
X580945Y199932D01*
Y203932D01*
X580567Y206804D01*
X579459Y209480D01*
X578000Y211380D01*
Y241000D01*
Y250372D01*
X579170Y250867D01*
X594363Y236148D01*
D02*
G37*
G36*
X73000Y231000D02*
Y224591D01*
X72882Y224000D01*
X73000Y223409D01*
Y182591D01*
X72882Y182000D01*
X73000Y181409D01*
Y178000D01*
X75000Y176000D01*
X78409D01*
X79000Y175882D01*
X79591Y176000D01*
X92000Y176000D01*
X92000Y104000D01*
X81898Y104000D01*
X81000Y104898D01*
Y149000D01*
X59000Y171000D01*
Y208000D01*
X55000Y212000D01*
Y231000D01*
X73000Y231000D01*
D02*
G37*
G36*
X231500Y97500D02*
Y72500D01*
X256500D01*
X280000Y49000D01*
X283409D01*
X284000Y48882D01*
X284591Y49000D01*
X316409D01*
X317000Y48882D01*
X317591Y49000D01*
X356000D01*
X366000Y39000D01*
Y16059D01*
X359237D01*
X358941Y16000D01*
X352259D01*
X351963Y16059D01*
X345000D01*
Y33000D01*
X340000Y38000D01*
X333354D01*
X333072Y38117D01*
X330200Y38495D01*
X327328Y38117D01*
X327046Y38000D01*
X307954D01*
X307672Y38117D01*
X304800Y38495D01*
X301928Y38117D01*
X301646Y38000D01*
X290400D01*
Y38400D01*
X268400D01*
Y38000D01*
X264296D01*
X264000Y38059D01*
X236941D01*
X203175Y71825D01*
X203473Y73323D01*
X205304Y74081D01*
X207915Y76085D01*
X209919Y78696D01*
X211178Y81737D01*
X211608Y85000D01*
X211178Y88263D01*
X209919Y91304D01*
X207915Y93915D01*
X205304Y95919D01*
X202263Y97178D01*
X199000Y97608D01*
X195737Y97178D01*
X192696Y95919D01*
X190085Y93915D01*
X188081Y91304D01*
X186822Y88263D01*
X186392Y85000D01*
X186822Y81737D01*
X187843Y79270D01*
X187118Y78000D01*
X157000Y78000D01*
Y102000D01*
X166000Y111000D01*
X218000D01*
X231500Y97500D01*
D02*
G37*
G36*
X124000Y73000D02*
X195307Y73000D01*
X195737Y72822D01*
X196245Y72755D01*
X234000Y35000D01*
X264000D01*
Y13000D01*
X268400D01*
Y12400D01*
X290400D01*
Y13000D01*
X301163D01*
X301928Y12683D01*
X304800Y12305D01*
X307672Y12683D01*
X308437Y13000D01*
X326563D01*
X327328Y12683D01*
X330200Y12305D01*
X333072Y12683D01*
X333837Y13000D01*
X351963D01*
X352728Y12683D01*
X355600Y12305D01*
X358472Y12683D01*
X359237Y13000D01*
X370000D01*
Y38000D01*
X392000D01*
Y3000D01*
X174186D01*
X173565Y4108D01*
X175450Y7184D01*
X177860Y13001D01*
X179330Y19123D01*
X179824Y25400D01*
X179330Y31677D01*
X177860Y37799D01*
X175450Y43616D01*
X172161Y48984D01*
X168072Y53772D01*
X163284Y57861D01*
X157916Y61150D01*
X152099Y63560D01*
X145977Y65030D01*
X139700Y65524D01*
X133423Y65030D01*
X127301Y63560D01*
X121484Y61150D01*
X116116Y57861D01*
X111328Y53772D01*
X107239Y48984D01*
X103949Y43616D01*
X101540Y37799D01*
X100070Y31677D01*
X99576Y25400D01*
X100070Y19123D01*
X101540Y13001D01*
X103949Y7184D01*
X105835Y4108D01*
X105214Y3000D01*
X3000D01*
Y55000D01*
X71000Y55000D01*
X108000Y92000D01*
X108000Y97102D01*
X108898Y98000D01*
X124000Y98000D01*
Y73000D01*
D02*
G37*
%LPC*%
G36*
X314960Y521095D02*
X312088Y520717D01*
X309412Y519608D01*
X307115Y517845D01*
X305352Y515547D01*
X304243Y512872D01*
X303865Y510000D01*
Y506000D01*
X304168Y503697D01*
X300185Y499714D01*
X299168Y500453D01*
X300277Y503128D01*
X300655Y506000D01*
Y510000D01*
X300277Y512872D01*
X299168Y515547D01*
X297405Y517845D01*
X295107Y519608D01*
X292432Y520717D01*
X289560Y521095D01*
X286688Y520717D01*
X284013Y519608D01*
X281715Y517845D01*
X279951Y515547D01*
X278843Y512872D01*
X278465Y510000D01*
Y506000D01*
X278843Y503128D01*
X279951Y500452D01*
X281715Y498155D01*
X283186Y497025D01*
X283270Y495758D01*
X279537Y492025D01*
X277659Y491652D01*
X275674Y490326D01*
X274348Y488341D01*
X273883Y486000D01*
X274348Y483659D01*
X275674Y481674D01*
X277659Y480348D01*
X280000Y479883D01*
X282341Y480348D01*
X284326Y481674D01*
X285652Y483659D01*
X286025Y485537D01*
X290401Y489912D01*
X301460D01*
X303216Y490261D01*
X304704Y491256D01*
X309715Y496266D01*
X312088Y495283D01*
X314960Y494905D01*
X317832Y495283D01*
X320508Y496391D01*
X322805Y498155D01*
X324568Y500452D01*
X325677Y503128D01*
X326055Y506000D01*
Y510000D01*
X325677Y512872D01*
X324568Y515547D01*
X322805Y517845D01*
X320508Y519608D01*
X317832Y520717D01*
X314960Y521095D01*
D02*
G37*
G36*
X646000Y521000D02*
X624000D01*
Y495000D01*
X646000D01*
Y521000D01*
D02*
G37*
G36*
X427560D02*
X405560D01*
Y495000D01*
X427560D01*
Y521000D01*
D02*
G37*
G36*
X609600Y521095D02*
X606728Y520717D01*
X604053Y519608D01*
X601755Y517845D01*
X599991Y515547D01*
X598883Y512872D01*
X598505Y510000D01*
Y506000D01*
X598883Y503128D01*
X599991Y500452D01*
X601755Y498155D01*
X604053Y496391D01*
X606728Y495283D01*
X609600Y494905D01*
X612472Y495283D01*
X615148Y496391D01*
X617445Y498155D01*
X619208Y500452D01*
X620317Y503128D01*
X620695Y506000D01*
Y510000D01*
X620317Y512872D01*
X619208Y515547D01*
X617445Y517845D01*
X615148Y519608D01*
X612472Y520717D01*
X609600Y521095D01*
D02*
G37*
G36*
X584200D02*
X581328Y520717D01*
X578652Y519608D01*
X576355Y517845D01*
X574591Y515547D01*
X573483Y512872D01*
X573105Y510000D01*
Y506000D01*
X573483Y503128D01*
X574591Y500452D01*
X576355Y498155D01*
X578652Y496391D01*
X581328Y495283D01*
X584200Y494905D01*
X587072Y495283D01*
X589748Y496391D01*
X592045Y498155D01*
X593809Y500452D01*
X594917Y503128D01*
X595295Y506000D01*
Y510000D01*
X594917Y512872D01*
X593809Y515547D01*
X592045Y517845D01*
X589748Y519608D01*
X587072Y520717D01*
X584200Y521095D01*
D02*
G37*
G36*
X558800D02*
X555928Y520717D01*
X553252Y519608D01*
X550955Y517845D01*
X549192Y515547D01*
X548083Y512872D01*
X547705Y510000D01*
Y506000D01*
X548083Y503128D01*
X549192Y500452D01*
X550955Y498155D01*
X553252Y496391D01*
X555928Y495283D01*
X558800Y494905D01*
X561672Y495283D01*
X564347Y496391D01*
X566645Y498155D01*
X568409Y500452D01*
X569517Y503128D01*
X569895Y506000D01*
Y510000D01*
X569517Y512872D01*
X568409Y515547D01*
X566645Y517845D01*
X564347Y519608D01*
X561672Y520717D01*
X558800Y521095D01*
D02*
G37*
G36*
X533400D02*
X530528Y520717D01*
X527853Y519608D01*
X525555Y517845D01*
X523792Y515547D01*
X522683Y512872D01*
X522305Y510000D01*
Y506000D01*
X522683Y503128D01*
X523792Y500452D01*
X525555Y498155D01*
X527853Y496391D01*
X530528Y495283D01*
X533400Y494905D01*
X536272Y495283D01*
X538947Y496391D01*
X541245Y498155D01*
X543008Y500452D01*
X544117Y503128D01*
X544495Y506000D01*
Y510000D01*
X544117Y512872D01*
X543008Y515547D01*
X541245Y517845D01*
X538947Y519608D01*
X536272Y520717D01*
X533400Y521095D01*
D02*
G37*
G36*
X508000D02*
X505128Y520717D01*
X502453Y519608D01*
X500155Y517845D01*
X498391Y515547D01*
X497283Y512872D01*
X496905Y510000D01*
Y506000D01*
X497283Y503128D01*
X498391Y500452D01*
X500155Y498155D01*
X502453Y496391D01*
X505128Y495283D01*
X508000Y494905D01*
X510872Y495283D01*
X513548Y496391D01*
X515845Y498155D01*
X517608Y500452D01*
X518717Y503128D01*
X519095Y506000D01*
Y510000D01*
X518717Y512872D01*
X517608Y515547D01*
X515845Y517845D01*
X513548Y519608D01*
X510872Y520717D01*
X508000Y521095D01*
D02*
G37*
G36*
X482600D02*
X479728Y520717D01*
X477052Y519608D01*
X474755Y517845D01*
X472991Y515547D01*
X471883Y512872D01*
X471505Y510000D01*
Y506000D01*
X471883Y503128D01*
X472991Y500452D01*
X474755Y498155D01*
X477052Y496391D01*
X479728Y495283D01*
X482600Y494905D01*
X485472Y495283D01*
X488148Y496391D01*
X490445Y498155D01*
X492209Y500452D01*
X493317Y503128D01*
X493695Y506000D01*
Y510000D01*
X493317Y512872D01*
X492209Y515547D01*
X490445Y517845D01*
X488148Y519608D01*
X485472Y520717D01*
X482600Y521095D01*
D02*
G37*
G36*
X457200D02*
X454328Y520717D01*
X451652Y519608D01*
X449355Y517845D01*
X447592Y515547D01*
X446483Y512872D01*
X446105Y510000D01*
Y506000D01*
X446483Y503128D01*
X447592Y500452D01*
X449355Y498155D01*
X451652Y496391D01*
X454328Y495283D01*
X457200Y494905D01*
X460072Y495283D01*
X462747Y496391D01*
X465045Y498155D01*
X466809Y500452D01*
X467917Y503128D01*
X468295Y506000D01*
Y510000D01*
X467917Y512872D01*
X466809Y515547D01*
X465045Y517845D01*
X462747Y519608D01*
X460072Y520717D01*
X457200Y521095D01*
D02*
G37*
G36*
X391160D02*
X388288Y520717D01*
X385612Y519608D01*
X383315Y517845D01*
X381552Y515547D01*
X380443Y512872D01*
X380065Y510000D01*
Y506000D01*
X380443Y503128D01*
X381552Y500452D01*
X383315Y498155D01*
X385612Y496391D01*
X388288Y495283D01*
X391160Y494905D01*
X394032Y495283D01*
X396707Y496391D01*
X399005Y498155D01*
X400769Y500452D01*
X401877Y503128D01*
X402255Y506000D01*
Y510000D01*
X401877Y512872D01*
X400769Y515547D01*
X399005Y517845D01*
X396707Y519608D01*
X394032Y520717D01*
X391160Y521095D01*
D02*
G37*
G36*
X365760D02*
X362888Y520717D01*
X360213Y519608D01*
X357915Y517845D01*
X356152Y515547D01*
X355043Y512872D01*
X354665Y510000D01*
Y506000D01*
X355043Y503128D01*
X356152Y500452D01*
X357915Y498155D01*
X360213Y496391D01*
X362888Y495283D01*
X365760Y494905D01*
X368632Y495283D01*
X371307Y496391D01*
X373605Y498155D01*
X375368Y500452D01*
X376477Y503128D01*
X376855Y506000D01*
Y510000D01*
X376477Y512872D01*
X375368Y515547D01*
X373605Y517845D01*
X371307Y519608D01*
X368632Y520717D01*
X365760Y521095D01*
D02*
G37*
G36*
X340360D02*
X337488Y520717D01*
X334813Y519608D01*
X332515Y517845D01*
X330751Y515547D01*
X329643Y512872D01*
X329265Y510000D01*
Y506000D01*
X329643Y503128D01*
X330751Y500452D01*
X332515Y498155D01*
X334813Y496391D01*
X337488Y495283D01*
X340360Y494905D01*
X343232Y495283D01*
X345908Y496391D01*
X348205Y498155D01*
X349968Y500452D01*
X351077Y503128D01*
X351455Y506000D01*
Y510000D01*
X351077Y512872D01*
X349968Y515547D01*
X348205Y517845D01*
X345908Y519608D01*
X343232Y520717D01*
X340360Y521095D01*
D02*
G37*
G36*
X76200Y397679D02*
X73198Y397284D01*
X70400Y396125D01*
X67998Y394282D01*
X66155Y391880D01*
X64996Y389082D01*
X64601Y386080D01*
X64996Y383078D01*
X66155Y380280D01*
X67998Y377878D01*
X70400Y376035D01*
X73198Y374876D01*
X76200Y374481D01*
X79202Y374876D01*
X82000Y376035D01*
X84402Y377878D01*
X86245Y380280D01*
X87404Y383078D01*
X87799Y386080D01*
X87404Y389082D01*
X86245Y391880D01*
X84402Y394282D01*
X82000Y396125D01*
X79202Y397284D01*
X76200Y397679D01*
D02*
G37*
G36*
X88000Y377118D02*
X85659Y376652D01*
X83674Y375326D01*
X82348Y373341D01*
X81882Y371000D01*
X82348Y368659D01*
X83412Y367067D01*
Y323933D01*
X82348Y322341D01*
X81882Y320000D01*
X82348Y317659D01*
X83674Y315674D01*
X85659Y314348D01*
X88000Y313883D01*
X90341Y314348D01*
X92326Y315674D01*
X92892Y316521D01*
X94162Y316136D01*
Y276307D01*
X92848Y274341D01*
X92382Y272000D01*
X92848Y269659D01*
X94174Y267674D01*
X96159Y266348D01*
X98500Y265882D01*
X100841Y266348D01*
X102826Y267674D01*
X104152Y269659D01*
X104618Y272000D01*
X104152Y274341D01*
X103338Y275559D01*
Y365693D01*
X104652Y367659D01*
X105118Y370000D01*
X104652Y372341D01*
X103326Y374326D01*
X101341Y375652D01*
X99000Y376118D01*
X96659Y375652D01*
X94674Y374326D01*
X94598Y374211D01*
X93070D01*
X92326Y375326D01*
X90341Y376652D01*
X88000Y377118D01*
D02*
G37*
G36*
X328000Y281117D02*
X325659Y280652D01*
X323674Y279326D01*
X322348Y277341D01*
X321883Y275000D01*
X322348Y272659D01*
X323412Y271067D01*
Y213431D01*
X322273Y212869D01*
X321397Y213540D01*
X318722Y214649D01*
X315850Y215027D01*
X312978Y214649D01*
X310303Y213540D01*
X308858Y212432D01*
X307588Y213058D01*
Y225067D01*
X308652Y226659D01*
X309118Y229000D01*
X308652Y231341D01*
X307326Y233326D01*
X305341Y234652D01*
X303000Y235117D01*
X300659Y234652D01*
X298674Y233326D01*
X297348Y231341D01*
X296882Y229000D01*
X297348Y226659D01*
X298412Y225067D01*
Y213289D01*
X297142Y212662D01*
X295997Y213540D01*
X293322Y214649D01*
X290450Y215027D01*
X287578Y214649D01*
X284903Y213540D01*
X282605Y211777D01*
X280842Y209480D01*
X279733Y206804D01*
X279696Y206520D01*
X253932D01*
X252176Y206171D01*
X250688Y205176D01*
X235537Y190025D01*
X233659Y189652D01*
X231674Y188326D01*
X230348Y186341D01*
X229883Y184000D01*
X230348Y181659D01*
X231674Y179674D01*
X233659Y178348D01*
X236000Y177882D01*
X238341Y178348D01*
X240326Y179674D01*
X241652Y181659D01*
X242025Y183537D01*
X255833Y197344D01*
X279696D01*
X279733Y197060D01*
X280842Y194384D01*
X282605Y192087D01*
X284903Y190324D01*
X287578Y189215D01*
X290450Y188837D01*
X293322Y189215D01*
X295997Y190324D01*
X297142Y191202D01*
X298412Y190575D01*
Y184933D01*
X297348Y183341D01*
X296882Y181000D01*
X297348Y178659D01*
X298674Y176674D01*
X300659Y175348D01*
X303000Y174883D01*
X305341Y175348D01*
X307326Y176674D01*
X308652Y178659D01*
X309118Y181000D01*
X308652Y183341D01*
X307588Y184933D01*
Y190805D01*
X308858Y191432D01*
X310303Y190324D01*
X312978Y189215D01*
X315850Y188837D01*
X318722Y189215D01*
X320142Y189803D01*
X321412Y188955D01*
Y183933D01*
X320348Y182341D01*
X319883Y180000D01*
X320348Y177659D01*
X321674Y175674D01*
X323659Y174348D01*
X326000Y173883D01*
X328341Y174348D01*
X330326Y175674D01*
X331652Y177659D01*
X332118Y180000D01*
X331652Y182341D01*
X330588Y183933D01*
Y191918D01*
X331244Y192574D01*
X331470Y192912D01*
X332739Y192954D01*
X333405Y192087D01*
X335703Y190324D01*
X338378Y189215D01*
X341250Y188837D01*
X344122Y189215D01*
X346797Y190324D01*
X349095Y192087D01*
X350858Y194384D01*
X351967Y197060D01*
X352345Y199932D01*
Y203932D01*
X351967Y206804D01*
X350858Y209480D01*
X349095Y211777D01*
X346797Y213540D01*
X344122Y214649D01*
X341250Y215027D01*
X338378Y214649D01*
X335703Y213540D01*
X333858Y212125D01*
X332588Y212710D01*
Y271067D01*
X333652Y272659D01*
X334118Y275000D01*
X333652Y277341D01*
X332326Y279326D01*
X330341Y280652D01*
X328000Y281117D01*
D02*
G37*
G36*
X115000Y219118D02*
X112659Y218652D01*
X110674Y217326D01*
X109348Y215341D01*
X108883Y213000D01*
X109348Y210659D01*
X110674Y208674D01*
X112659Y207348D01*
X113288Y207223D01*
X116256Y204256D01*
X116685Y203969D01*
X116846Y202334D01*
X113288Y198777D01*
X112659Y198652D01*
X110674Y197326D01*
X109348Y195341D01*
X108883Y193000D01*
X109348Y190659D01*
X110674Y188674D01*
X112659Y187348D01*
X115000Y186882D01*
X117341Y187348D01*
X119326Y188674D01*
X120652Y190659D01*
X121117Y193000D01*
X121013Y193525D01*
X123900Y196412D01*
X154067D01*
X155659Y195348D01*
X158000Y194883D01*
X160341Y195348D01*
X162326Y196674D01*
X163652Y198659D01*
X163912Y199965D01*
X165000Y200882D01*
X165303Y200943D01*
X167341Y201348D01*
X169326Y202674D01*
X170652Y204659D01*
X171117Y207000D01*
X170652Y209341D01*
X169326Y211326D01*
X167341Y212652D01*
X165000Y213118D01*
X162659Y212652D01*
X161815Y212088D01*
X122166D01*
X121117Y213000D01*
X120652Y215341D01*
X119326Y217326D01*
X117341Y218652D01*
X115000Y219118D01*
D02*
G37*
G36*
X209000Y215117D02*
X208000D01*
X205659Y214652D01*
X203674Y213326D01*
X195466Y205117D01*
X176000D01*
X173659Y204652D01*
X171674Y203326D01*
X170348Y201341D01*
X169883Y199000D01*
X170348Y196659D01*
X171674Y194674D01*
X173659Y193348D01*
X176000Y192882D01*
X198000D01*
X200341Y193348D01*
X202326Y194674D01*
X210915Y203263D01*
X211341Y203348D01*
X213326Y204674D01*
X214652Y206659D01*
X215117Y209000D01*
X214652Y211341D01*
X213326Y213326D01*
X211341Y214652D01*
X209000Y215117D01*
D02*
G37*
G36*
X544450Y215027D02*
X541578Y214649D01*
X538903Y213540D01*
X536605Y211777D01*
X534841Y209480D01*
X533733Y206804D01*
X533355Y203932D01*
Y199932D01*
X533733Y197060D01*
X534841Y194384D01*
X536605Y192087D01*
X538903Y190324D01*
X541578Y189215D01*
X544450Y188837D01*
X547322Y189215D01*
X549997Y190324D01*
X552295Y192087D01*
X554058Y194384D01*
X555167Y197060D01*
X555545Y199932D01*
Y203932D01*
X555167Y206804D01*
X554058Y209480D01*
X552295Y211777D01*
X549997Y213540D01*
X547322Y214649D01*
X544450Y215027D01*
D02*
G37*
G36*
X519050D02*
X516178Y214649D01*
X513503Y213540D01*
X511205Y211777D01*
X509441Y209480D01*
X508333Y206804D01*
X507955Y203932D01*
Y199932D01*
X508333Y197060D01*
X509441Y194384D01*
X511205Y192087D01*
X513503Y190324D01*
X516178Y189215D01*
X519050Y188837D01*
X521922Y189215D01*
X524597Y190324D01*
X526895Y192087D01*
X528658Y194384D01*
X529767Y197060D01*
X530145Y199932D01*
Y203932D01*
X529767Y206804D01*
X528658Y209480D01*
X526895Y211777D01*
X524597Y213540D01*
X521922Y214649D01*
X519050Y215027D01*
D02*
G37*
G36*
X493650D02*
X490778Y214649D01*
X488103Y213540D01*
X485805Y211777D01*
X484041Y209480D01*
X482933Y206804D01*
X482555Y203932D01*
Y199932D01*
X482933Y197060D01*
X484041Y194384D01*
X485805Y192087D01*
X488103Y190324D01*
X490778Y189215D01*
X493650Y188837D01*
X496522Y189215D01*
X499197Y190324D01*
X501495Y192087D01*
X503259Y194384D01*
X504367Y197060D01*
X504745Y199932D01*
Y203932D01*
X504367Y206804D01*
X503259Y209480D01*
X501495Y211777D01*
X499197Y213540D01*
X496522Y214649D01*
X493650Y215027D01*
D02*
G37*
G36*
X468250D02*
X465378Y214649D01*
X462703Y213540D01*
X460405Y211777D01*
X458642Y209480D01*
X457533Y206804D01*
X457155Y203932D01*
Y199932D01*
X457533Y197060D01*
X458642Y194384D01*
X460405Y192087D01*
X462703Y190324D01*
X465378Y189215D01*
X468250Y188837D01*
X471122Y189215D01*
X473797Y190324D01*
X476095Y192087D01*
X477859Y194384D01*
X478967Y197060D01*
X479345Y199932D01*
Y203932D01*
X478967Y206804D01*
X477859Y209480D01*
X476095Y211777D01*
X473797Y213540D01*
X471122Y214649D01*
X468250Y215027D01*
D02*
G37*
G36*
X417450D02*
X414578Y214649D01*
X411903Y213540D01*
X409605Y211777D01*
X407841Y209480D01*
X406733Y206804D01*
X406355Y203932D01*
Y199932D01*
X406733Y197060D01*
X407841Y194384D01*
X409605Y192087D01*
X411903Y190324D01*
X414578Y189215D01*
X417450Y188837D01*
X420322Y189215D01*
X422997Y190324D01*
X425295Y192087D01*
X427058Y194384D01*
X428167Y197060D01*
X428545Y199932D01*
Y203932D01*
X428167Y206804D01*
X427058Y209480D01*
X425295Y211777D01*
X422997Y213540D01*
X420322Y214649D01*
X417450Y215027D01*
D02*
G37*
G36*
X392050D02*
X389178Y214649D01*
X386503Y213540D01*
X384205Y211777D01*
X382441Y209480D01*
X381333Y206804D01*
X380955Y203932D01*
Y199932D01*
X381333Y197060D01*
X382441Y194384D01*
X384205Y192087D01*
X386503Y190324D01*
X389178Y189215D01*
X392050Y188837D01*
X394922Y189215D01*
X397597Y190324D01*
X399895Y192087D01*
X401659Y194384D01*
X402767Y197060D01*
X403145Y199932D01*
Y203932D01*
X402767Y206804D01*
X401659Y209480D01*
X399895Y211777D01*
X397597Y213540D01*
X394922Y214649D01*
X392050Y215027D01*
D02*
G37*
G36*
X366650D02*
X363778Y214649D01*
X361103Y213540D01*
X358805Y211777D01*
X357042Y209480D01*
X355933Y206804D01*
X355555Y203932D01*
Y199932D01*
X355933Y197060D01*
X357042Y194384D01*
X358805Y192087D01*
X361103Y190324D01*
X363778Y189215D01*
X366650Y188837D01*
X369522Y189215D01*
X372197Y190324D01*
X374495Y192087D01*
X376259Y194384D01*
X377367Y197060D01*
X377745Y199932D01*
Y203932D01*
X377367Y206804D01*
X376259Y209480D01*
X374495Y211777D01*
X372197Y213540D01*
X369522Y214649D01*
X366650Y215027D01*
D02*
G37*
G36*
X569850Y138827D02*
X566978Y138449D01*
X564303Y137340D01*
X562005Y135577D01*
X560242Y133279D01*
X559133Y130604D01*
X558755Y127732D01*
Y123732D01*
X559133Y120860D01*
X560242Y118184D01*
X562005Y115887D01*
X564303Y114123D01*
X566978Y113015D01*
X569850Y112637D01*
X572722Y113015D01*
X575397Y114123D01*
X577695Y115887D01*
X579459Y118184D01*
X580567Y120860D01*
X580945Y123732D01*
Y127732D01*
X580567Y130604D01*
X579459Y133279D01*
X577695Y135577D01*
X575397Y137340D01*
X572722Y138449D01*
X569850Y138827D01*
D02*
G37*
G36*
X544450D02*
X541578Y138449D01*
X538903Y137340D01*
X536605Y135577D01*
X534841Y133279D01*
X533733Y130604D01*
X533355Y127732D01*
Y123732D01*
X533733Y120860D01*
X534841Y118184D01*
X536605Y115887D01*
X538903Y114123D01*
X541578Y113015D01*
X544450Y112637D01*
X547322Y113015D01*
X549997Y114123D01*
X552295Y115887D01*
X554058Y118184D01*
X555167Y120860D01*
X555545Y123732D01*
Y127732D01*
X555167Y130604D01*
X554058Y133279D01*
X552295Y135577D01*
X549997Y137340D01*
X547322Y138449D01*
X544450Y138827D01*
D02*
G37*
G36*
X455000Y170059D02*
X445174D01*
X444003Y169826D01*
X443011Y169163D01*
X442348Y168171D01*
X442115Y167000D01*
X442115Y140000D01*
X441100Y138596D01*
X439978Y138449D01*
X437303Y137340D01*
X435005Y135577D01*
X433242Y133279D01*
X432133Y130604D01*
X431755Y127732D01*
Y123732D01*
X432133Y120860D01*
X433242Y118184D01*
X435005Y115887D01*
X437303Y114123D01*
X439978Y113015D01*
X442850Y112637D01*
X445722Y113015D01*
X448397Y114123D01*
X450695Y115887D01*
X452458Y118184D01*
X453567Y120860D01*
X453945Y123732D01*
Y127732D01*
X453567Y130604D01*
X452458Y133279D01*
X450695Y135577D01*
X450485Y135739D01*
X450893Y136941D01*
X472941Y136941D01*
Y135650D01*
X472981Y135452D01*
X472967Y135251D01*
X473096Y134872D01*
X473174Y134480D01*
X473286Y134312D01*
X473351Y134121D01*
X473615Y133820D01*
X473623Y133809D01*
X473669Y133715D01*
X473795Y133550D01*
X473837Y133488D01*
X473850Y133479D01*
X475187Y131737D01*
X475987Y129805D01*
X476286Y127531D01*
Y123933D01*
X475987Y121659D01*
X475187Y119727D01*
X473914Y118068D01*
X472255Y116795D01*
X470829Y116205D01*
X469837Y115542D01*
X469423Y114921D01*
X469174Y114550D01*
X468941Y113379D01*
Y94000D01*
X469174Y92830D01*
X469837Y91837D01*
X470830Y91174D01*
X472000Y90941D01*
X508000D01*
X509170Y91174D01*
X510163Y91837D01*
X510826Y92830D01*
X511059Y94000D01*
Y114398D01*
X512329Y115024D01*
X513503Y114123D01*
X516178Y113015D01*
X519050Y112637D01*
X521922Y113015D01*
X524597Y114123D01*
X526895Y115887D01*
X528658Y118184D01*
X529767Y120860D01*
X530145Y123732D01*
Y127732D01*
X529767Y130604D01*
X528658Y133279D01*
X526895Y135577D01*
X524597Y137340D01*
X521922Y138449D01*
X519050Y138827D01*
X516178Y138449D01*
X513503Y137340D01*
X512329Y136440D01*
X511059Y137066D01*
Y153000D01*
X510826Y154171D01*
X510163Y155163D01*
X509170Y155826D01*
X508000Y156059D01*
X465723Y156059D01*
X457568Y168662D01*
X457343Y168894D01*
X457163Y169163D01*
X456931Y169318D01*
X456737Y169518D01*
X456440Y169646D01*
X456171Y169826D01*
X455897Y169880D01*
X455641Y169991D01*
X455317Y169996D01*
X455000Y170059D01*
D02*
G37*
G36*
X417450Y138827D02*
X414578Y138449D01*
X411903Y137340D01*
X409605Y135577D01*
X407841Y133279D01*
X406733Y130604D01*
X406355Y127732D01*
Y123732D01*
X406733Y120860D01*
X407841Y118184D01*
X409605Y115887D01*
X411903Y114123D01*
X414578Y113015D01*
X417450Y112637D01*
X420322Y113015D01*
X422997Y114123D01*
X425295Y115887D01*
X427058Y118184D01*
X428167Y120860D01*
X428545Y123732D01*
Y127732D01*
X428167Y130604D01*
X427058Y133279D01*
X425295Y135577D01*
X422997Y137340D01*
X420322Y138449D01*
X417450Y138827D01*
D02*
G37*
G36*
X392050D02*
X389178Y138449D01*
X386503Y137340D01*
X384205Y135577D01*
X382441Y133279D01*
X381333Y130604D01*
X380955Y127732D01*
Y123732D01*
X381333Y120860D01*
X382441Y118184D01*
X384205Y115887D01*
X386503Y114123D01*
X389178Y113015D01*
X392050Y112637D01*
X394922Y113015D01*
X397597Y114123D01*
X399895Y115887D01*
X401659Y118184D01*
X402767Y120860D01*
X403145Y123732D01*
Y127732D01*
X402767Y130604D01*
X401659Y133279D01*
X399895Y135577D01*
X397597Y137340D01*
X394922Y138449D01*
X392050Y138827D01*
D02*
G37*
G36*
X366650D02*
X363778Y138449D01*
X361103Y137340D01*
X358805Y135577D01*
X357042Y133279D01*
X355933Y130604D01*
X355555Y127732D01*
Y123732D01*
X355933Y120860D01*
X357042Y118184D01*
X358805Y115887D01*
X361103Y114123D01*
X363778Y113015D01*
X366650Y112637D01*
X369522Y113015D01*
X372197Y114123D01*
X374495Y115887D01*
X376259Y118184D01*
X377367Y120860D01*
X377745Y123732D01*
Y127732D01*
X377367Y130604D01*
X376259Y133279D01*
X374495Y135577D01*
X372197Y137340D01*
X369522Y138449D01*
X366650Y138827D01*
D02*
G37*
G36*
X341250D02*
X338378Y138449D01*
X335703Y137340D01*
X333405Y135577D01*
X331642Y133279D01*
X330533Y130604D01*
X330155Y127732D01*
Y123732D01*
X330533Y120860D01*
X331642Y118184D01*
X333405Y115887D01*
X335703Y114123D01*
X338378Y113015D01*
X341250Y112637D01*
X344122Y113015D01*
X346797Y114123D01*
X349095Y115887D01*
X350858Y118184D01*
X351967Y120860D01*
X352345Y123732D01*
Y127732D01*
X351967Y130604D01*
X350858Y133279D01*
X349095Y135577D01*
X346797Y137340D01*
X344122Y138449D01*
X341250Y138827D01*
D02*
G37*
G36*
X315850D02*
X312978Y138449D01*
X310303Y137340D01*
X308005Y135577D01*
X306241Y133279D01*
X305133Y130604D01*
X304755Y127732D01*
Y123732D01*
X305133Y120860D01*
X306241Y118184D01*
X308005Y115887D01*
X310303Y114123D01*
X312978Y113015D01*
X315850Y112637D01*
X318722Y113015D01*
X321397Y114123D01*
X323695Y115887D01*
X325458Y118184D01*
X326567Y120860D01*
X326945Y123732D01*
Y127732D01*
X326567Y130604D01*
X325458Y133279D01*
X323695Y135577D01*
X321397Y137340D01*
X318722Y138449D01*
X315850Y138827D01*
D02*
G37*
G36*
X290450D02*
X287578Y138449D01*
X284903Y137340D01*
X282605Y135577D01*
X280842Y133279D01*
X279733Y130604D01*
X279355Y127732D01*
Y123732D01*
X279733Y120860D01*
X280842Y118184D01*
X282605Y115887D01*
X284903Y114123D01*
X287578Y113015D01*
X290450Y112637D01*
X293322Y113015D01*
X295997Y114123D01*
X298295Y115887D01*
X300058Y118184D01*
X301167Y120860D01*
X301545Y123732D01*
Y127732D01*
X301167Y130604D01*
X300058Y133279D01*
X298295Y135577D01*
X295997Y137340D01*
X293322Y138449D01*
X290450Y138827D01*
D02*
G37*
%LPD*%
G36*
X464059Y153000D02*
X508000Y153000D01*
Y128073D01*
X507955Y127732D01*
Y123732D01*
X508000Y123391D01*
Y94000D01*
X472000D01*
Y113379D01*
X473797Y114123D01*
X476095Y115887D01*
X477859Y118184D01*
X478967Y120860D01*
X479345Y123732D01*
Y127732D01*
X478967Y130604D01*
X477859Y133279D01*
X476095Y135577D01*
X476000Y135650D01*
Y140000D01*
X445174Y140000D01*
X445174Y167000D01*
X455000D01*
X464059Y153000D01*
D02*
G37*
%LPC*%
G36*
X493650Y138827D02*
X490778Y138449D01*
X488103Y137340D01*
X485805Y135577D01*
X484041Y133279D01*
X482933Y130604D01*
X482555Y127732D01*
Y123732D01*
X482933Y120860D01*
X484041Y118184D01*
X485805Y115887D01*
X488103Y114123D01*
X490778Y113015D01*
X493650Y112637D01*
X496522Y113015D01*
X499197Y114123D01*
X501495Y115887D01*
X503259Y118184D01*
X504367Y120860D01*
X504745Y123732D01*
Y127732D01*
X504367Y130604D01*
X503259Y133279D01*
X501495Y135577D01*
X499197Y137340D01*
X496522Y138449D01*
X493650Y138827D01*
D02*
G37*
G36*
X148000Y431695D02*
X144000D01*
X141128Y431317D01*
X138453Y430209D01*
X136155Y428445D01*
X134391Y426147D01*
X133283Y423472D01*
X132905Y420600D01*
X133283Y417728D01*
X134391Y415053D01*
X136155Y412755D01*
X138453Y410992D01*
X141128Y409883D01*
X144000Y409505D01*
X148000D01*
X150872Y409883D01*
X153547Y410992D01*
X155845Y412755D01*
X157608Y415053D01*
X158717Y417728D01*
X159095Y420600D01*
X158717Y423472D01*
X157608Y426147D01*
X155845Y428445D01*
X153547Y430209D01*
X150872Y431317D01*
X148000Y431695D01*
D02*
G37*
G36*
Y406295D02*
X144000D01*
X141128Y405917D01*
X138453Y404809D01*
X136155Y403045D01*
X134391Y400747D01*
X133283Y398072D01*
X132905Y395200D01*
X133283Y392328D01*
X134391Y389653D01*
X136155Y387355D01*
X138453Y385592D01*
X141128Y384483D01*
X144000Y384105D01*
X148000D01*
X150872Y384483D01*
X153547Y385592D01*
X155845Y387355D01*
X157608Y389653D01*
X158717Y392328D01*
X159095Y395200D01*
X158717Y398072D01*
X157608Y400747D01*
X155845Y403045D01*
X153547Y404809D01*
X150872Y405917D01*
X148000Y406295D01*
D02*
G37*
G36*
X36900Y483940D02*
X13900D01*
Y460940D01*
X36900D01*
Y483940D01*
D02*
G37*
G36*
Y397580D02*
X13900D01*
Y374580D01*
X36900D01*
Y397580D01*
D02*
G37*
G36*
X25400Y353599D02*
X22398Y353204D01*
X19600Y352045D01*
X17198Y350202D01*
X15355Y347800D01*
X14196Y345002D01*
X13801Y342000D01*
X14196Y338998D01*
X15355Y336200D01*
X17198Y333798D01*
X19600Y331955D01*
X22398Y330796D01*
X25400Y330401D01*
X28402Y330796D01*
X31200Y331955D01*
X33602Y333798D01*
X35445Y336200D01*
X36604Y338998D01*
X36999Y342000D01*
X36604Y345002D01*
X35445Y347800D01*
X33602Y350202D01*
X31200Y352045D01*
X28402Y353204D01*
X25400Y353599D01*
D02*
G37*
G36*
Y328199D02*
X22398Y327804D01*
X19600Y326645D01*
X17198Y324802D01*
X15355Y322400D01*
X14196Y319602D01*
X13801Y316600D01*
X14196Y313598D01*
X15355Y310800D01*
X17198Y308398D01*
X19600Y306555D01*
X22398Y305396D01*
X25400Y305001D01*
X28402Y305396D01*
X31200Y306555D01*
X33602Y308398D01*
X35445Y310800D01*
X36604Y313598D01*
X36999Y316600D01*
X36604Y319602D01*
X35445Y322400D01*
X33602Y324802D01*
X31200Y326645D01*
X28402Y327804D01*
X25400Y328199D01*
D02*
G37*
G36*
X28845Y243057D02*
X16045D01*
X14322Y242830D01*
X12717Y242165D01*
X11338Y241107D01*
X10280Y239729D01*
X9615Y238123D01*
X9388Y236400D01*
Y231600D01*
X9615Y229877D01*
X10280Y228272D01*
X11338Y226893D01*
X12717Y225835D01*
X14322Y225170D01*
X16045Y224943D01*
X28845D01*
X30568Y225170D01*
X32174Y225835D01*
X33552Y226893D01*
X34610Y228272D01*
X35275Y229877D01*
X35502Y231600D01*
Y236400D01*
X35275Y238123D01*
X34610Y239729D01*
X33552Y241107D01*
X32174Y242165D01*
X30568Y242830D01*
X28845Y243057D01*
D02*
G37*
G36*
Y177057D02*
X16045D01*
X14322Y176830D01*
X12717Y176165D01*
X11338Y175107D01*
X10280Y173729D01*
X9615Y172123D01*
X9388Y170400D01*
Y165600D01*
X9615Y163877D01*
X10280Y162271D01*
X11338Y160893D01*
X12717Y159835D01*
X14322Y159170D01*
X16045Y158943D01*
X28845D01*
X30568Y159170D01*
X32174Y159835D01*
X33552Y160893D01*
X34610Y162271D01*
X35275Y163877D01*
X35502Y165600D01*
Y170400D01*
X35275Y172123D01*
X34610Y173729D01*
X33552Y175107D01*
X32174Y176165D01*
X30568Y176830D01*
X28845Y177057D01*
D02*
G37*
G36*
X519000Y38400D02*
X497000D01*
Y12400D01*
X519000D01*
Y38400D01*
D02*
G37*
G36*
X584200Y38495D02*
X581328Y38117D01*
X578652Y37009D01*
X576355Y35245D01*
X574591Y32947D01*
X573483Y30272D01*
X573105Y27400D01*
Y23400D01*
X573483Y20528D01*
X574591Y17852D01*
X576355Y15555D01*
X578652Y13792D01*
X581328Y12683D01*
X584200Y12305D01*
X587072Y12683D01*
X589748Y13792D01*
X592045Y15555D01*
X593809Y17852D01*
X594917Y20528D01*
X595295Y23400D01*
Y27400D01*
X594917Y30272D01*
X593809Y32947D01*
X592045Y35245D01*
X589748Y37009D01*
X587072Y38117D01*
X584200Y38495D01*
D02*
G37*
G36*
X558800D02*
X555928Y38117D01*
X553252Y37009D01*
X550955Y35245D01*
X549192Y32947D01*
X548083Y30272D01*
X547705Y27400D01*
Y23400D01*
X548083Y20528D01*
X549192Y17852D01*
X550955Y15555D01*
X553252Y13792D01*
X555928Y12683D01*
X558800Y12305D01*
X561672Y12683D01*
X564347Y13792D01*
X566645Y15555D01*
X568409Y17852D01*
X569517Y20528D01*
X569895Y23400D01*
Y27400D01*
X569517Y30272D01*
X568409Y32947D01*
X566645Y35245D01*
X564347Y37009D01*
X561672Y38117D01*
X558800Y38495D01*
D02*
G37*
G36*
X533400D02*
X530528Y38117D01*
X527853Y37009D01*
X525555Y35245D01*
X523792Y32947D01*
X522683Y30272D01*
X522305Y27400D01*
Y23400D01*
X522683Y20528D01*
X523792Y17852D01*
X525555Y15555D01*
X527853Y13792D01*
X530528Y12683D01*
X533400Y12305D01*
X536272Y12683D01*
X538947Y13792D01*
X541245Y15555D01*
X543008Y17852D01*
X544117Y20528D01*
X544495Y23400D01*
Y27400D01*
X544117Y30272D01*
X543008Y32947D01*
X541245Y35245D01*
X538947Y37009D01*
X536272Y38117D01*
X533400Y38495D01*
D02*
G37*
G36*
X457200D02*
X454328Y38117D01*
X451652Y37009D01*
X449355Y35245D01*
X447592Y32947D01*
X446483Y30272D01*
X446105Y27400D01*
Y23400D01*
X446483Y20528D01*
X447592Y17852D01*
X449355Y15555D01*
X451652Y13792D01*
X454328Y12683D01*
X457200Y12305D01*
X460072Y12683D01*
X462747Y13792D01*
X465045Y15555D01*
X466809Y17852D01*
X467917Y20528D01*
X468295Y23400D01*
Y27400D01*
X467917Y30272D01*
X466809Y32947D01*
X465045Y35245D01*
X462747Y37009D01*
X460072Y38117D01*
X457200Y38495D01*
D02*
G37*
G36*
X431800D02*
X428928Y38117D01*
X426253Y37009D01*
X423955Y35245D01*
X422192Y32947D01*
X421083Y30272D01*
X420705Y27400D01*
Y23400D01*
X421083Y20528D01*
X422192Y17852D01*
X423955Y15555D01*
X426253Y13792D01*
X428928Y12683D01*
X431800Y12305D01*
X434672Y12683D01*
X437347Y13792D01*
X439645Y15555D01*
X441409Y17852D01*
X442517Y20528D01*
X442895Y23400D01*
Y27400D01*
X442517Y30272D01*
X441409Y32947D01*
X439645Y35245D01*
X437347Y37009D01*
X434672Y38117D01*
X431800Y38495D01*
D02*
G37*
G36*
X595250Y215027D02*
X592378Y214649D01*
X589703Y213540D01*
X587405Y211777D01*
X585642Y209480D01*
X584533Y206804D01*
X584155Y203932D01*
Y199932D01*
X584533Y197060D01*
X585642Y194384D01*
X587405Y192087D01*
X589703Y190324D01*
X592378Y189215D01*
X595250Y188837D01*
X598122Y189215D01*
X600797Y190324D01*
X603095Y192087D01*
X604859Y194384D01*
X605967Y197060D01*
X606345Y199932D01*
Y203932D01*
X605967Y206804D01*
X604859Y209480D01*
X603095Y211777D01*
X600797Y213540D01*
X598122Y214649D01*
X595250Y215027D01*
D02*
G37*
G36*
X244000Y32608D02*
X240737Y32178D01*
X237696Y30919D01*
X235085Y28915D01*
X233081Y26304D01*
X231822Y23263D01*
X231392Y20000D01*
X231822Y16737D01*
X233081Y13696D01*
X235085Y11085D01*
X237696Y9081D01*
X240737Y7822D01*
X244000Y7392D01*
X247263Y7822D01*
X250304Y9081D01*
X252915Y11085D01*
X254919Y13696D01*
X256178Y16737D01*
X256608Y20000D01*
X256178Y23263D01*
X254919Y26304D01*
X252915Y28915D01*
X250304Y30919D01*
X247263Y32178D01*
X244000Y32608D01*
D02*
G37*
G36*
X199000D02*
X195737Y32178D01*
X192696Y30919D01*
X190085Y28915D01*
X188081Y26304D01*
X186822Y23263D01*
X186392Y20000D01*
X186822Y16737D01*
X188081Y13696D01*
X190085Y11085D01*
X192696Y9081D01*
X195737Y7822D01*
X199000Y7392D01*
X202263Y7822D01*
X205304Y9081D01*
X207915Y11085D01*
X209919Y13696D01*
X211178Y16737D01*
X211608Y20000D01*
X211178Y23263D01*
X209919Y26304D01*
X207915Y28915D01*
X205304Y30919D01*
X202263Y32178D01*
X199000Y32608D01*
D02*
G37*
%LPD*%
D12*
X114000Y213000D02*
X119500Y207500D01*
X114000Y193000D02*
X122000Y201000D01*
X312000Y424000D02*
X553000D01*
X303000Y181000D02*
Y229000D01*
X309000Y421000D02*
X312000Y424000D01*
X208000Y414000D02*
X583000D01*
X584000Y415000D01*
X253932Y201932D02*
X290450D01*
X236000Y184000D02*
X253932Y201932D01*
X328000Y195819D02*
Y275000D01*
X589500Y464500D02*
X606000Y448000D01*
Y339000D02*
Y448000D01*
X586000Y319000D02*
X606000Y339000D01*
X602000Y235000D02*
X612615D01*
X586000Y251000D02*
X602000Y235000D01*
X586000Y251000D02*
Y319000D01*
X612615Y235000D02*
X648500Y199115D01*
X627000Y237000D02*
X658000Y206000D01*
X627000Y237000D02*
Y305000D01*
X308000Y432000D02*
X581000D01*
X301460Y494500D02*
X314960Y508000D01*
X288500Y494500D02*
X301460D01*
X280000Y486000D02*
X288500Y494500D01*
X658000Y165082D02*
Y206000D01*
X620650Y127732D02*
X658000Y165082D01*
X614643Y151643D02*
X628835D01*
X595250Y132250D02*
X614643Y151643D01*
X595250Y125732D02*
Y132250D01*
X612000Y320000D02*
X627000Y305000D01*
X612000Y320000D02*
Y454000D01*
X270000Y472000D02*
X594000D01*
X250260Y491740D02*
X270000Y472000D01*
X250260Y491740D02*
Y514763D01*
X594000Y472000D02*
X612000Y454000D01*
X254860Y464500D02*
X589500D01*
X668000Y160000D02*
Y211000D01*
X642150Y236850D02*
X668000Y211000D01*
X642150Y236850D02*
Y304850D01*
X619900Y327100D02*
X642150Y304850D01*
X619900Y327100D02*
Y443900D01*
X587500Y426500D02*
Y434692D01*
X585000Y424000D02*
X587500Y426500D01*
X619900Y443900D02*
X628000Y452000D01*
X581192Y441000D02*
X587500Y434692D01*
X250979Y441000D02*
X581192D01*
X213360Y506000D02*
X254860Y464500D01*
X231979Y460000D02*
X250979Y441000D01*
X162000Y460000D02*
X231979D01*
X126000Y446000D02*
X146000D01*
X99560Y472440D02*
X126000Y446000D01*
X76200Y472440D02*
X99560D01*
X148000Y446000D02*
X162000Y460000D01*
X146000Y446000D02*
X148000D01*
X648500Y171308D02*
Y199115D01*
X628835Y151643D02*
X648500Y171308D01*
X243523Y521500D02*
X250260Y514763D01*
X620650Y125732D02*
Y127732D01*
X88000Y320000D02*
Y371000D01*
X98750Y369750D02*
X99000Y370000D01*
X98750Y272250D02*
Y369750D01*
X98500Y272000D02*
X98750Y272250D01*
X122000Y201000D02*
X158000D01*
X119500Y207500D02*
X164230D01*
X164730Y207000D01*
X165000D01*
X164000Y206270D02*
X164730Y207000D01*
X199460Y521500D02*
X243523D01*
X187960Y510000D02*
X199460Y521500D01*
X326000Y180000D02*
Y193819D01*
X213360Y506000D02*
Y508000D01*
X187960D02*
Y510000D01*
X326000Y193819D02*
X328000Y195819D01*
D17*
X244000Y85000D02*
D03*
D60*
Y20000D02*
D03*
X199000D02*
D03*
Y85000D02*
D03*
X599500Y261250D02*
D03*
Y306250D02*
D03*
X664500D02*
D03*
D61*
Y261250D02*
D03*
D70*
X577500Y237500D02*
X581000Y234000D01*
X577500Y237500D02*
Y322521D01*
X596000Y341021D02*
Y438213D01*
X577500Y322521D02*
X596000Y341021D01*
X252000Y452000D02*
X582213D01*
X596000Y438213D01*
X218000Y486000D02*
X252000Y452000D01*
D71*
X176000Y199000D02*
X198000D01*
X208000Y209000D02*
X209000D01*
X198000Y199000D02*
X208000Y209000D01*
D73*
X581000Y234000D02*
X582750Y232250D01*
D74*
X167000Y88000D02*
D03*
X141600D02*
D03*
X187960Y508000D02*
D03*
X213360D02*
D03*
X238760D02*
D03*
X264160D02*
D03*
X289560D02*
D03*
X314960D02*
D03*
X340360D02*
D03*
X365760D02*
D03*
X391160D02*
D03*
X609600D02*
D03*
X584200D02*
D03*
X558800D02*
D03*
X533400D02*
D03*
X508000D02*
D03*
X482600D02*
D03*
X457200D02*
D03*
X635000Y25400D02*
D03*
X609600D02*
D03*
X584200D02*
D03*
X558800D02*
D03*
X533400D02*
D03*
X304800D02*
D03*
X330200D02*
D03*
X355600D02*
D03*
X381000D02*
D03*
X406400D02*
D03*
X431800D02*
D03*
X457200D02*
D03*
X595250Y201932D02*
D03*
X569850D02*
D03*
X544450D02*
D03*
X519050D02*
D03*
X493650D02*
D03*
X468250D02*
D03*
X442850D02*
D03*
X417450D02*
D03*
X392050D02*
D03*
X366650D02*
D03*
X341250D02*
D03*
X315850D02*
D03*
X290450D02*
D03*
X620650Y125732D02*
D03*
X595250D02*
D03*
X569850D02*
D03*
X544450D02*
D03*
X519050D02*
D03*
X493650D02*
D03*
X468250D02*
D03*
X442850D02*
D03*
X417450D02*
D03*
X392050D02*
D03*
X366650D02*
D03*
X341250D02*
D03*
X315850D02*
D03*
X290450D02*
D03*
D75*
X116200Y88000D02*
D03*
X416560Y508000D02*
D03*
X635000D02*
D03*
X508000Y25400D02*
D03*
X279400D02*
D03*
X620650Y201932D02*
D03*
D76*
X22445Y234000D02*
D03*
Y168000D02*
D03*
D77*
X76200Y497840D02*
D03*
X50800D02*
D03*
X25400D02*
D03*
X76200Y472440D02*
D03*
X50800D02*
D03*
X76200Y411480D02*
D03*
X50800D02*
D03*
X25400D02*
D03*
X76200Y386080D02*
D03*
X50800D02*
D03*
X25400Y316600D02*
D03*
X50800D02*
D03*
X25400Y342000D02*
D03*
D78*
Y472440D02*
D03*
Y386080D02*
D03*
X50800Y342000D02*
D03*
D79*
X146000Y446000D02*
D03*
X662000Y469000D02*
D03*
D80*
X146000Y420600D02*
D03*
Y395200D02*
D03*
Y369800D02*
D03*
X662000Y418200D02*
D03*
Y443600D02*
D03*
D81*
X660400Y355600D02*
D03*
Y76200D02*
D03*
X139700Y25400D02*
D03*
D82*
X21000Y133000D02*
D03*
Y22000D02*
D03*
D83*
X152400Y508000D02*
D03*
D84*
X593000Y183252D02*
D03*
X389750Y403000D02*
D03*
X381750D02*
D03*
X283000Y430000D02*
D03*
X118000Y154000D02*
D03*
X110000D02*
D03*
X102000D02*
D03*
X135000Y169000D02*
D03*
Y177000D02*
D03*
Y185000D02*
D03*
X390000Y481000D02*
D03*
X382000D02*
D03*
X553000Y424000D02*
D03*
X303000Y229000D02*
D03*
X309000Y421000D02*
D03*
X236000Y184000D02*
D03*
X328000Y275000D02*
D03*
X580000Y392000D02*
D03*
Y384000D02*
D03*
X615000Y67000D02*
D03*
Y58000D02*
D03*
X636000Y187000D02*
D03*
X410000Y65000D02*
D03*
X424000D02*
D03*
X319000Y62000D02*
D03*
X208000Y414000D02*
D03*
X308000Y432000D02*
D03*
X129000Y412000D02*
D03*
X122000Y417000D02*
D03*
X280000Y486000D02*
D03*
X176000Y199000D02*
D03*
X209000Y209000D02*
D03*
X585000Y424000D02*
D03*
X628000Y452000D02*
D03*
X475687Y97688D02*
D03*
X48000Y452000D02*
D03*
X167000Y137000D02*
D03*
X115500Y182000D02*
D03*
X77000Y292000D02*
D03*
X374000Y403000D02*
D03*
Y481000D02*
D03*
X450000Y218000D02*
D03*
X479000Y251000D02*
D03*
X402000D02*
D03*
X108000Y245000D02*
D03*
X141000Y225000D02*
D03*
X150000Y270000D02*
D03*
X175000Y209000D02*
D03*
X196000D02*
D03*
X231000Y199000D02*
D03*
X258000Y229000D02*
D03*
X219000Y246000D02*
D03*
X184000Y288000D02*
D03*
X218000Y327000D02*
D03*
X267000Y338000D02*
D03*
X196000Y438000D02*
D03*
X185000Y422000D02*
D03*
X51000Y522000D02*
D03*
X580000Y376000D02*
D03*
X642000Y174000D02*
D03*
X679000Y127000D02*
D03*
X433000Y112000D02*
D03*
X463000Y89000D02*
D03*
X417000Y65000D02*
D03*
X390000Y88000D02*
D03*
X402000Y113000D02*
D03*
X355000Y76000D02*
D03*
X305000D02*
D03*
X190000Y146000D02*
D03*
X227000Y138000D02*
D03*
X207000Y138000D02*
D03*
X156000Y138000D02*
D03*
X75000Y253000D02*
D03*
X79000Y224000D02*
D03*
Y182000D02*
D03*
X219000Y447000D02*
D03*
X168000Y421000D02*
D03*
X122000Y408000D02*
D03*
X12000Y288000D02*
D03*
X41000Y287000D02*
D03*
X284000Y55000D02*
D03*
X317000D02*
D03*
X437000Y51000D02*
D03*
X457000Y46000D02*
D03*
X88000Y320000D02*
D03*
Y371000D02*
D03*
X98500Y272000D02*
D03*
X99000Y370000D02*
D03*
X158000Y201000D02*
D03*
X165000Y207000D02*
D03*
X451000Y161000D02*
D03*
X88000Y116000D02*
D03*
Y107000D02*
D03*
X59000Y220000D02*
D03*
Y227000D02*
D03*
X115000Y213000D02*
D03*
Y193000D02*
D03*
X584000Y415000D02*
D03*
X218000Y486000D02*
D03*
X581000Y432000D02*
D03*
X668000Y160000D02*
D03*
X326000Y180000D02*
D03*
X303000Y181000D02*
D03*
M02*
