M48
;Layer_Color=9474304
;FILE_FORMAT=4:4
METRIC,LZ
;TYPE=PLATED
T1F00S00C0.3000
T3F00S00C1.0000
T4F00S00C1.1000
T5F00S00C1.5000
T6F00S00C3.2000
;TYPE=NON_PLATED
T7F00S00C3.2000
%
T01
X00317Y00055
X00319Y00062
X00305Y00076
X00355
X0039Y00088
X00402Y00113
X00433Y00112
X00463Y00089
X00475687Y00097688
X00457Y00046
X00437Y00051
X00424Y00065
X00417
X0041
X00451Y00161
X0045Y00218
X00479Y00251
X00402
X00328Y00275
X00326Y0018
X00593Y00183252
X00636Y00187
X00642Y00174
X00668Y0016
X00679Y00127
X00615Y00067
Y00058
X00284Y00055
X00227Y00138
X00207Y00138
X0019Y00146
X00167Y00137
X00156Y00138
X00135Y00169
Y00177
Y00185
X001155Y00182
X00115Y00193
Y00213
X00141Y00225
X00158Y00201
X00165Y00207
X00175Y00209
X00176Y00199
X00196Y00209
X00209
X00231Y00199
X00236Y00184
X00258Y00229
X00303
Y00181
X00219Y00246
X00184Y00288
X0015Y0027
X000985Y00272
X00108Y00245
X00075Y00253
X00079Y00224
X00059Y00227
Y0022
X00079Y00182
X00102Y00154
X0011
X00118
X00088Y00116
Y00107
X00077Y00292
X00088Y0032
X00041Y00287
X00012Y00288
X00218Y00327
X00267Y00338
X00283Y0043
X0028Y00486
X00218
X00219Y00447
X00196Y00438
X00185Y00422
X00168Y00421
X00208Y00414
X00129Y00412
X00122Y00408
Y00417
X00099Y0037
X00088Y00371
X00048Y00452
X00051Y00522
X00308Y00432
X00309Y00421
X00374Y00403
X0038175
X0038975
X0039Y00481
X00382
X00374
X00553Y00424
X00585
X00584Y00415
X00581Y00432
X0058Y00392
Y00384
Y00376
X00628Y00452
T03
X005995Y0026125
Y0030625
X006645
Y0026125
X00244Y00085
X00199
Y0002
X00244
T04
X003048Y000254
X003302
X003556
X00381
X004064
X004318
X004572
X00508
X005334
X005588
X005842
X006096
X00635
X0062065Y00125732
X0059525
X0056985
X0054445
X0051905
X0049365
X0046825
X0044285
X0041745
X0039205
X0036665
X0034125
X0031585
Y00201932
X0034125
X0036665
X0039205
X0041745
X0044285
X0046825
X0049365
X0051905
X0054445
X0056985
X0059525
X0062065
X0029045
Y00125732
X002794Y000254
X00167Y00088
X001416
X001162
X000508Y003166
X000254
Y00342
X000508
Y0038608
Y0041148
X000762
Y0038608
X000254
Y0041148
Y0047244
Y0049784
X000508
X000762
Y0047244
X000508
X00146Y00446
Y004206
Y003952
Y003698
X0018796Y00508
X0021336
X0023876
X0026416
X0028956
X0031496
X0034036
X0036576
X0039116
X0041656
X004572
X004826
X00508
X005334
X005588
X005842
X006096
X00635
X00662Y00469
Y004436
Y004182
T05
X00021Y00022
Y00133
T06
X006604Y000762
Y003556
X001397Y000254
T07
X001524Y00508
M30
